<svg preserveAspectRatio="none" width="100%" height="100%" overflow="visible" style="display: block;" viewBox="0 0 1070.51 651.711" fill="none" xmlns="http://www.w3.org/2000/svg">
<path id="Vector 1" d="M217.853 40.4867C239.078 79.7132 250.079 99.9964 282.946 123.673C286.054 125.797 289.158 127.805 292.6 129.897C356.907 170.043 466.533 171.966 548.321 158.405L553.625 157.976C558.935 158.043 569.238 156.489 578.337 154.937C650.656 141.511 728.401 125.889 806.512 127.904C810.521 128.006 812.895 128.658 814.711 128.732C831.832 129.24 860.805 131.713 877.919 135.398C914.029 140.647 976.093 168.314 1000.2 195.621C1010.91 206.04 1020.37 218.387 1022.6 223.853C1025.73 228.304 1028.38 230.188 1029.23 231.355C1029.24 231.369 1029.25 231.383 1029.26 231.397C1031.94 234.969 1036.98 245.335 1038.18 247.619C1038.36 247.964 1038.06 245.42 1040.71 251.108C1040.93 251.591 1040.27 251.521 1042.45 256.002C1043.1 257.029 1050.87 272.449 1052.49 277.21C1058.79 291.723 1066.81 330.346 1068.25 348.187C1068.57 351.055 1069.1 352.685 1069.4 355.771C1069.55 357.365 1069.38 359.809 1069.42 360.305C1069.46 360.665 1069.55 361.223 1069.67 361.89C1070.32 365.517 1071.26 372.072 1068.31 369.136C1068.79 379.605 1069.74 376.517 1070.51 376.76C1070.49 388.218 1068.09 393.289 1069.46 396.433C1062.66 454.08 1023.07 499.826 981.034 529.22C981.183 529.455 981.331 529.689 981.48 529.924C968.483 537.758 965.103 541.898 956.761 545.104C952.317 548.182 947.681 551.234 943.397 553.981C822.389 615.901 690.957 635.901 563.017 646.952C557.597 647.361 556.202 646.884 547.258 647.491C537.381 648.159 523.527 649.666 510.478 650.257C499.021 650.796 482.12 650.843 469.411 651.043C466.545 651.092 464.465 651.508 464.137 651.513C462.221 651.538 462.113 650.948 460.257 650.966C458.036 650.989 455.363 651.473 452.8 651.483C443.223 651.531 432.843 651.72 431.639 651.711C425.833 651.669 424.559 651.082 424.082 651.076C417.642 650.992 420.056 651.517 418.453 651.482C410.033 651.278 404.079 649.927 392.606 650.972C392.927 650.495 393.248 650.017 393.568 649.539C384.822 649.097 390.577 650.494 388.783 650.692C388.012 650.786 369.356 650.136 367.815 650.037C362.693 649.784 362.585 649.13 362.142 649.107C361.06 649.056 348.207 649.286 341.733 648.399C334.069 647.359 343.19 646.496 341.291 646.157C340.966 646.104 332.925 645.831 331.878 645.359C330.713 644.858 337.643 645.231 337.549 645.038C337.468 644.917 326.036 643.388 328.275 642.896C330.052 642.4 345.635 643.977 349.005 643.815C349.557 643.792 348.553 642.991 349.041 642.984C351.014 643.064 387.309 644.203 388.9 644.268C387.01 644.574 385.123 644.876 383.237 645.175C385.733 645.27 388.234 645.36 390.739 645.444C387.171 645.65 383.609 645.844 380.055 646.029C385.242 649.022 401.306 646.427 401.986 645.005C402.275 644.357 392.535 642.525 401.637 641.679C400.257 641.492 398.879 641.304 397.502 641.114C394.654 641.344 391.809 641.568 388.969 641.785C390.853 641.998 392.74 642.208 394.63 642.416C393.93 642.6 393.23 642.785 392.529 642.968C387.213 643.184 381.912 643.376 376.629 643.545C373.922 643.323 374.502 642.758 372.646 642.59C349.133 640.384 364.409 642.726 349.039 641.845C346.861 641.438 344.69 641.026 342.524 640.61C343.234 641.934 336.492 640.814 328.351 640.913C329.344 640.55 330.337 640.187 331.33 639.823C319.546 639.461 295.31 635.595 301.722 638.363C299.015 637.968 296.318 637.567 293.631 637.16C291.32 637.357 289.015 637.55 286.714 637.738C283.558 637.434 280.542 637.132 277.245 636.795C277.249 636.59 277.252 636.386 277.255 636.181C279.873 636.413 282.328 636.624 284.829 636.833C282.996 636.055 281.235 635.28 279.35 634.49C277.437 634.426 275.528 634.358 273.625 634.287C281.532 635.594 270.943 635.605 268.347 636.174C261.643 635.839 257.544 634.338 255.342 634.06C254.29 633.941 241.963 634.474 246.941 632.945C240.734 632.509 234.41 632.017 227.927 631.456C225.447 630.984 222.98 630.507 220.526 630.023C226.011 629.778 210.643 626.571 222.126 627.691C230.736 628.506 232.795 629.645 236.929 630.136C240.558 630.56 242.467 630.171 246.389 630.583C272.977 633.344 294.629 635.244 320.231 637.11C325.382 637.48 329.797 637.428 333.157 637.649C336.927 637.896 332.157 638.408 336.98 638.472C342.05 638.533 343.184 637.96 344.524 638.011C345.359 638.044 347.981 638.723 350.427 638.827C360.468 639.278 375.362 639.19 376.689 639.22C378.238 639.326 406.581 640.365 407.989 640.416C408.713 640.471 407.188 642.524 413.505 640.377C415.465 640.35 417.462 640.32 419.383 640.287C419.067 640.697 418.752 641.107 418.436 641.518C429.936 639.986 425.972 640.861 437.093 640.693C463.846 640.309 503.162 639.462 532.319 637.515C538.825 637.091 541.273 636.446 548.96 635.887C556.086 635.396 574.891 635.361 570.662 633.652C586.727 634.081 588.989 630.768 597.102 631.896C598.035 631.527 598.967 631.158 599.898 630.787C608.607 631.097 611.165 629.783 620.592 628.581C624.646 628.053 620.115 629.851 628.142 627.499C629.718 627.418 631.293 627.334 632.867 627.248C632.541 627.595 632.215 627.941 631.888 628.288C640.938 626.934 641.527 626.995 640.354 625.999C644.749 625.652 649.135 625.285 653.51 624.9C654 624.456 654.489 624.011 654.978 623.566C653.048 623.885 553.372 635.306 539.475 635.702C523.136 635.97 490.322 638.46 477.147 638.556C471.862 638.619 469.56 637.836 461.838 637.891C454.118 637.947 444.445 638.826 440.356 638.88C426.871 639.355 362.039 638.044 406.078 637.694C404.815 637.267 403.553 636.839 402.293 636.409C384.813 637.538 391.131 636.786 376.753 636.279C370.839 636.072 356.024 636.449 356.964 634.599C368.422 634.703 380.282 635.638 390.098 635.807C391.066 635.831 402.719 635.181 408.746 635.461C414.157 635.716 410.496 637.498 422.22 635.535C430.902 637.513 435.951 635.695 438.249 635.493C442.229 635.136 442.673 636.1 446.664 636.17C451.013 636.245 454.002 635.554 454.596 635.541C460.637 635.506 491.507 634.545 492.969 634.82C491.728 635.037 490.489 635.254 489.248 635.469C497.309 635.456 495.59 634.52 497.702 634.321C499.278 634.262 500.855 634.201 502.432 634.138C501.815 634.37 501.199 634.601 500.582 634.832C510.094 634.377 502.791 634.006 516.284 633.375C524.839 632.963 533.724 633.212 534.553 633.103C534.797 633.071 532.072 632.707 535.555 632.425C541.322 631.964 551.295 631.291 552.461 631.923C555.279 631.62 554.987 630.935 555.361 630.892C556.97 630.763 585.235 628.214 590.249 627.632C604.17 626.21 619.812 624.687 634.911 622.702C636.462 622.499 635.528 623.069 637.081 622.861C639.586 622.541 652.263 620.165 654.146 619.842C658.869 619.09 671.596 617.52 673.52 617.007C673.796 616.936 669.569 616.957 674.377 616.04C679.707 615.014 676.944 616.265 677.237 616.229C688.187 614.821 694.914 613.11 702.235 611.731C704.631 611.281 709.244 611.091 712.619 610.288C713.008 610.196 712.127 609.777 712.508 609.679C717.608 608.445 722.595 608.571 724.821 608.21C730.263 607.325 727.166 607.129 727.448 607.069C731.041 606.342 735.923 605.656 741.328 604.492C765.89 599.15 785.095 594.545 811.063 587.252C814.269 586.345 818.195 585.764 818.68 585.62C820.177 585.17 819.573 584.683 823.886 583.396C832.778 580.736 841.686 577.838 850.641 574.77C852.455 574.148 853.422 574.446 854.802 573.976C859.509 572.428 874.233 565.224 875.386 566.826C884.014 561.602 890.534 560.489 897.663 557.365C914.687 550.054 940.376 536.497 956.51 526.26C959.844 524.191 961.635 523.599 963.45 522.422C966.567 520.683 985.005 506.603 985.712 505.835C987.542 504.477 988.114 507.125 995.635 497.917C1000.83 492.999 1000.81 494.159 1001.92 493.181C1010.62 485.39 1016.04 475.684 1016.13 478.454C1024.45 467.952 1028.39 459.938 1032.73 456.297C1031.98 455.876 1034.87 450.455 1038.67 443.694C1036.12 451.277 1038 451.202 1026.96 466.738C1026.78 466.98 1026.62 466.157 1026.44 466.398C1024.84 468.568 1021.58 473.37 1018.6 476.867C1015.68 480.28 1016.97 478.101 1015.8 479.472C1014.73 480.72 1015.21 481.068 1013.61 482.864C1008.41 488.676 1003.46 493.707 1000.11 496.83C997.958 498.846 995.372 500.464 993.765 501.863C987.857 507.224 973.292 518.904 964.814 524.334C962.994 525.526 963.456 524.553 959.42 527.112C958.944 527.408 957.568 529.027 954.022 531.366C950.469 533.702 947.445 535.138 945.08 536.582C943.13 537.764 944.096 537.843 940.167 540.092C937.422 542.299 897.481 561.214 895.43 561.5C892.283 562.716 890.505 562.644 888.629 563.523C888.3 563.68 888.007 564.587 886.852 565.116C867.637 574.331 824.168 587.724 801.164 593.655C753.631 606.494 708.826 615.469 659.718 622.61C658.853 622.859 657.982 623.108 657.121 623.355C662.131 622.665 667.134 621.95 672.114 621.209C672.196 621.542 672.279 621.874 672.361 622.207C679.102 621.246 678.08 620.575 677.82 620.125C680.335 619.947 682.846 619.762 685.354 619.571C687.36 618.068 703.717 616.166 712.424 614.551C718.001 613.542 724.497 611.841 727.407 611.307C733.556 610.178 733.529 610.917 734.015 610.835C734.845 610.69 743.207 608.336 749.322 607.037C758.565 605.059 759.845 605.956 772.082 602.093C787.937 598.926 805.807 593.92 822.578 588.788C819.747 590.734 834.235 585.348 841.343 582.995C882.644 569.792 933.211 548.915 970.658 523.087C975.362 519.886 979.535 517.544 982.11 515.553C983.528 514.455 983.706 513.409 985.701 511.957C986.046 511.699 986.73 512.058 990.334 509.241C999.286 502.866 1019.09 481.012 1024.15 475.892C1049.27 444.993 1063.21 403.018 1059.21 362.716C1059.2 362.54 1059.18 362.365 1059.17 362.19C1059.36 361.164 1059.55 360.14 1059.74 359.118C1057.92 351.584 1054.81 322.84 1051 309.136C1045.18 284.417 1032 254.492 1019.19 236.068C1016.43 231.939 1014.4 228.436 1011.58 224.778C1010.36 223.205 1008.43 221.609 1007.13 220.041C992.552 201.729 967.713 181.451 946.809 171.041C899.514 146.815 849.677 140.189 798.251 139.666C714.05 138.383 628.504 161.538 553.33 171.005L550.706 171.217C468.377 183.756 378.43 184.125 303.284 150.422C301.348 149.513 301.702 149.017 300.219 148.298C296.735 146.599 291.542 144.027 286.135 140.965C277.655 136.2 269.091 130.583 263.705 126.48C256.574 121.272 247.182 111.452 244.438 109.87C255.899 122.33 269.812 132.99 285.36 142.293C297.989 149.857 311.702 156.02 325.787 161.085C327.994 161.875 328.095 162.498 328.365 162.601C333.4 164.452 330.405 162.714 337.848 164.943C340.228 165.897 363.282 173.36 360.911 170.839C366.245 173.325 406.841 179.616 414.868 179.495C417.292 179.615 415.621 178.947 416.103 178.958C418.191 179.001 419.075 179.802 420.926 179.949C425.838 180.374 438.485 180.325 440.9 180.364C446.339 180.592 462.979 181.284 470.276 180.911C476.937 180.613 475.671 179.877 481.462 179.585C485.993 179.325 481.011 180.242 491.259 179.893C496.305 179.771 513.94 177.893 518.106 177.403C522.486 176.957 527.138 176.912 533.071 176.12C537.325 175.55 544.749 174.457 551.081 173.231L553.283 173.053C558.076 173.068 564.707 172.111 568.773 171.472C569.241 171.398 570.311 170.641 571.534 170.469C574.094 170.104 573.439 170.951 575.464 170.705C577.314 170.661 611.632 164.122 617.74 162.937C621.815 162.167 624.393 161.233 626.663 160.81C628.427 160.483 628.73 161.052 630.552 160.719C631.109 160.615 635.886 159.18 640.5 158.353C644.955 157.529 662.138 155.053 664.129 154.751C665.432 154.536 663.923 154.341 667.791 153.713C671.376 153.136 673.64 153.352 675.626 153.046C680.19 152.344 685.312 151.075 690.288 150.355C704.261 148.366 703.749 149.221 704.577 149.12C706.953 148.875 707.828 148.117 708.608 148.006C711.878 147.531 719.806 146.482 722.752 146.145C726.39 145.719 728.044 146.162 731.895 145.784C734.758 145.503 740.51 144.357 747.144 143.815C762.02 142.568 779.827 141.673 794.588 141.71C798.988 141.717 799.659 142.296 801.003 142.322C808.064 142.482 812.04 142.016 814.059 142.095C828.522 142.511 854.077 145.991 867.348 148.569C872.747 149.354 896.398 153.882 909.398 158.497C910.882 158.993 909.355 158.95 911.027 159.433C915.016 160.607 914.943 159.656 916.927 160.389C917.88 160.749 919.899 162.014 922.67 163.145C936.987 169.018 946.581 173.783 952.75 177.316C1014.25 210.681 1046.81 281.061 1053.67 342.131C1054.43 347.725 1055.59 354.528 1056.09 362.962C1056.2 364.799 1056.27 366.689 1056.26 368.627C1056 368.98 1055.74 369.332 1055.47 369.681C1055.76 370.055 1056.05 370.432 1056.33 370.809C1056.67 383.328 1056.8 387.636 1054.62 400.255C1054.42 401.35 1052.6 404.382 1053.71 406.711C1049.78 418.664 1052.54 412.251 1050.05 421.199C1047.35 430.09 1043.49 438.3 1039.22 446.243C1036.61 450.383 1044.48 431.334 1044.62 430.006C1045.41 428.016 1046.91 426.189 1047.63 424.232C1049.76 418.464 1050.6 412.543 1051.6 411.364C1052.68 403.43 1050.81 413.185 1050.37 412.042C1051.92 406.984 1053.2 401.8 1054.2 396.494C1053.05 393.681 1056.45 364.774 1054.29 366.666C1054.4 365.479 1054.49 364.285 1054.56 363.083C1054.65 361.896 1054.72 360.714 1054.79 359.535C1051.69 349.599 1052.63 343.942 1051.12 330.932C1051.01 331.937 1050.91 333.012 1050.78 333.952C1050.68 333.719 1048.09 322.041 1050.02 326.017C1046.14 314.45 1048.78 314.578 1044.33 304.708C1042.33 298.489 1044.55 301.839 1041.08 290.903C1039.02 284.6 1035.49 276.742 1032.37 269.773C1031.66 268.175 1031.92 267.228 1031.27 265.819C1030.62 264.415 1029.75 263.997 1028.93 262.336C1027.31 259.031 1025.16 254.036 1023.94 251.955C1022.83 250.04 1020.82 247.548 1017.99 243.178C1007.6 227.888 1011.04 232.232 1009.62 229.657C1007.93 226.967 1005.83 225.824 1001.89 220.969C1001.48 220.476 1003.04 221.319 1001.67 219.758C1000.56 218.515 999.519 218.284 995.706 214.373C994.719 212.301 969.226 190.238 964.47 188.009C958.082 183.449 943.142 174.347 935.696 171.085C932.872 169.77 929.605 168.936 926.556 167.668C916.445 163.346 899.834 157.839 886.437 154.742C874.378 151.658 853.041 147.212 846.189 147.686C828.904 145.986 824.817 145.099 823.499 144.947C819.975 144.714 818.304 145.253 813.868 145.111C756.211 142.784 681.688 153.272 628.798 163.575C603.383 168.068 576.356 174.875 553.221 175.814L551.587 175.946C462.153 189.211 362.983 189.862 283.477 145.516C279.135 142.965 275.323 140.586 271.159 137.81C270.734 137.861 270.31 137.911 269.885 137.96C274.078 140.843 278.215 143.554 282.938 146.439C291.513 151.696 300.837 156.458 309.385 160.083C326.766 167.805 354.372 173.871 367.808 178.178C362.182 177.295 353.311 174.501 353.257 175.472C363.142 177.889 373.149 179.866 383.229 181.469C382.995 180.978 382.762 180.487 382.53 179.996C393.019 181.484 403.867 182.823 414.485 183.612C416.346 183.749 415.061 183.238 416.678 183.361C418.484 183.496 417.229 183.818 417.567 183.847C422.131 184.185 423.513 183.832 424.066 183.875C425.482 183.975 424.361 184.32 428.492 184.656C436.101 185.263 441.666 184.319 439.801 186.045C442.292 186.121 444.711 186.179 447.214 186.223C447.87 185.752 448.524 185.279 449.174 184.806C464.4 186.92 471.347 183.243 479.862 185.664C482.653 185.142 485.284 184.61 488.122 184.049C489.724 184.449 491.309 184.844 492.876 185.235C493.152 184.804 493.425 184.372 493.698 183.941C508.711 183.343 524.519 181.304 538.659 179.394C544.973 178.534 548.426 178.051 551.873 177.481L553.185 177.375C554.746 177.433 556.907 177.399 560.086 177.119C579.174 174.803 560.18 178.093 576.224 176.655C575.274 176.293 574.343 175.926 573.432 175.553C576.017 174.967 579.007 174.284 581.382 173.687C583.24 173.788 585.159 173.872 587.133 173.939C595.226 170.299 600.554 171.035 601.833 170.798C602.866 170.599 605.526 168.78 615.609 167.972C611.141 167.023 623.236 166.51 624.025 166.375C624.754 166.24 636.358 163.662 640.684 162.899C644.153 162.275 652.282 161.205 657.441 160.302C662.139 159.478 661.581 158.97 661.922 158.905C667.785 157.869 664.174 158.946 668.457 158.26C672.836 157.564 675.858 156.572 676.811 156.468C677.272 156.421 675.83 157.213 677.932 156.938C683.575 156.194 693.866 154.182 700.316 153.338C702.624 153.031 705.61 153.117 708.21 152.803C712.217 152.319 713.901 151.485 716.206 151.232C717.004 151.148 722.184 151.512 728.56 150.707C729.786 150.552 733.115 148.139 738.089 150.618C738.415 150.177 738.741 149.735 739.068 149.294C760.422 146.459 766.489 149.694 775.92 146.349C791.513 146.248 780.838 147.696 782.555 147.822C783.659 147.902 788.729 147.503 789.289 147.521C790.278 147.546 790.111 147.918 791.194 147.907C811.043 147.865 802.241 147.204 808.548 146.856C823.592 146.306 835.155 149.263 809.143 147.455C809.138 147.662 809.132 147.868 809.126 148.074C815.521 147.965 831.8 149.101 826.299 149.805C821.972 149.985 783.58 148.9 805.314 150.373C810.238 150.749 812.822 150.01 821.298 151.897C826.924 152.301 827.879 150.451 835.441 151.838C834.246 151.075 833.044 150.317 831.836 149.565C842.408 149.491 855.113 152.223 863.181 153.196C865.908 153.466 876.25 152.233 873.381 154.882C878.002 155.364 899.01 161.148 902.956 162.297C903.881 162.582 905.727 161.062 918.86 166.498C919.714 167.044 920.563 167.594 921.407 168.149C909.073 164.042 930.192 172.935 923.798 172.131C922.157 170.623 912.731 166.634 911.285 165.817C908.818 164.337 917.035 166.245 906.813 163.072C899.638 163.48 918.19 168.405 914.532 169.877C927.961 173.663 928.695 175.566 931.537 176.836C943.597 182.674 951.11 186.624 961.427 193.946C964.415 195.077 945.37 182.171 942.545 181.34C952.696 184.753 936.726 175.877 929.221 173.991C928.858 173.228 928.489 172.465 928.114 171.703C937.165 175.924 945.825 180.52 954.537 185.297C954.982 185.81 955.424 186.325 955.863 186.841C953.812 185.929 951.75 185.056 949.678 184.219C956.447 188.856 953.181 184.834 961.548 192.022C962.178 191.698 962.809 191.377 963.443 191.058C972.08 197.243 980.109 204.086 987.526 211.634C992.526 214.299 1005.43 230.4 1001.66 228.519C1006.56 234.975 1001.1 226.509 1006.06 232.344C1008.22 234.889 1012.02 240.335 1012.54 241.972C1010.89 242.162 1005.15 234.216 1002.5 232.621C1004.41 233.453 1027.64 272.062 1023.37 269.464C1024.62 272.77 1024.84 270.85 1027.58 276.727C1035.5 293.257 1040.41 320.344 1044.84 334.885C1043.05 317.127 1040.66 313.438 1036.93 300.325C1036.07 291.805 1013.78 245.657 1019.93 255.266C1018.83 253.689 1017.71 252.141 1016.58 250.623C1016.03 248.738 1015.46 246.865 1014.87 245.003C1017.76 249.487 1020.52 254.167 1023.12 259.051C1023.3 260.442 1023.48 261.867 1023.59 263.176C1024.15 263.541 1024.72 263.911 1025.28 264.285C1026.31 266.26 1027.32 268.269 1028.3 270.312C1027.67 269.898 1027.03 269.491 1026.39 269.09C1027.76 272.264 1029.07 275.512 1030.32 278.834C1030.48 277.741 1030.63 276.648 1030.78 275.553C1037.1 291.237 1034.5 285.749 1036.45 294.755C1038.35 301.337 1036.07 289.821 1040.42 303.837C1044.85 320.067 1040.85 309.325 1045.42 330.833C1045.75 331.101 1046.08 331.371 1046.4 331.641C1046.97 336.572 1047.33 340.91 1047.67 345.681C1047.93 345.02 1048.19 344.358 1048.45 343.697C1049.19 349.767 1050.23 357.515 1050.52 363.402C1050.7 366.861 1050.58 369.557 1050.12 370.806C1050.23 367.213 1049.91 364.861 1049.5 363.483C1048.74 360.938 1047.71 361.686 1047.57 363.438C1047.56 363.496 1047.56 363.562 1047.56 363.636C1047.44 367.399 1049.09 388.066 1043.64 409.864C1038.81 431.343 1026.64 451.622 1022.4 457.616C1011.13 473.985 1000.55 483.762 987.872 496.45C998.533 490.096 1025.65 456.76 1029.11 449.477C1029.56 448.812 1031.35 450.165 1031.76 444.384C1040.17 429.842 1046.31 410.673 1048.3 389.872C1048.86 390.55 1049.41 391.235 1049.96 391.927C1047.34 404.661 1046.59 416.812 1044.76 414.566C1044.07 417.025 1043.32 419.457 1042.51 421.871C1042.9 422.004 1043.29 422.137 1043.69 422.27C1042.44 425.954 1041.05 429.582 1039.51 433.155C1039.13 432.991 1038.74 432.827 1038.36 432.662C1037.1 435.597 1035.74 438.494 1034.28 441.354C1034.5 441.84 1034.71 442.328 1034.93 442.818C1030.55 451.379 1012.36 478.808 1019.16 465.789C1016.43 469.416 1013.54 472.946 1010.68 476.209C1010.92 476.399 1011.16 476.588 1011.39 476.777C1010.18 478.234 1008.93 479.68 1007.66 481.116C1007.88 480.465 1008.11 479.816 1008.32 479.167C1002.84 485.961 995.546 490.877 991.907 495.382C994.809 493.074 997.919 490.45 1000.79 487.906C995.163 493.053 985.717 502.162 984.712 502.918C981.881 505.236 979.983 505.961 976.781 508.377C973.874 510.552 974.54 510.622 973.988 511.017C957.785 522.07 962.628 515.355 956.777 522.895C955.751 523.065 954.724 523.231 953.696 523.392C952.805 524.364 951.903 525.333 950.99 526.301C946.151 529.254 940.864 532.301 936.047 534.94C937.905 534.497 939.786 534.027 941.766 533.485C934.394 537.969 930.567 538.763 929.804 539.157C927.736 540.189 927.09 541.255 926.452 541.589C895.094 557.102 913.589 547.323 897.159 552.218C891.973 555.534 897.997 553.95 899.182 554.484C891.569 557.33 889.327 558.576 881.197 561.817C879.075 562.656 876.587 563.072 875.234 563.592C874.093 564.034 870.495 566.022 867.864 567.009C863.347 568.712 857.15 570.615 850.772 572.824C845.538 574.686 828.988 580.53 817.77 583.79C812.896 585.221 813.891 584.436 812.629 584.802C812.105 584.954 808.436 586.59 805.26 587.475C779.37 594.705 752.48 600.519 726.471 605.594C707.834 609.233 689.128 612.868 670.363 615.616C666.364 616.198 668.42 615.478 666.672 615.721C666.07 615.802 665.457 616.628 659.208 617.22C656.949 617.432 659.461 616.574 657.25 616.858C656.163 616.995 655.825 617.687 649.645 618.663C638.409 620.425 632.191 620.306 631.186 620.458C629.283 620.736 629.903 621.186 627.372 621.506C614.971 623.062 604.608 624.244 593.582 625.354C588.456 625.975 552.701 628.996 550.756 628.947C546.357 629.044 550.363 627.682 544.744 628.099C543.188 628.478 541.63 628.855 540.072 629.23C542.589 629.279 545.106 629.321 547.624 629.359C540.71 629.484 532.921 630.455 527.811 630.725C526.866 630.778 518.155 630.761 513.73 631.025C515.602 630.729 517.474 630.43 519.346 630.129C518.671 629.99 517.997 629.85 517.322 629.71C508.483 630.425 499.081 630.824 489.997 631.108C486.721 631.209 487.813 630.749 484.498 630.844C465.2 631.32 470.143 632.96 451.43 629.977C457.758 630.23 480.596 629.252 483.918 629.219C486.231 629.229 495.323 631.689 491.92 628.949C510.463 628.229 494.416 630.482 511.739 629.361C511.376 629.029 511.013 628.697 510.65 628.364C516.69 627.858 521.127 627.445 524.832 627.859C525.969 626.12 546.526 625.894 557.74 624.907C573.983 623.542 592.3 621.48 608.245 619.708C613.784 619.096 617.005 619.397 617.698 619.319C618.715 619.2 621.503 618.299 623.527 618.059C631.127 617.21 654.014 615.237 659.524 612.779C614.954 619.074 569.77 623.303 524.761 625.792C530.498 626.381 484.804 628.567 482.502 628.45C480.36 628.481 482.145 627.868 481.508 627.854C476.764 627.761 472.747 628.672 471.244 628.709C470.094 628.737 467.794 628.417 463.695 628.511C462.942 628.527 462.74 628.933 461.931 628.95C456.577 629.056 451.3 629.131 445.945 629.192C445.619 629.191 444.262 628.62 442.912 628.632C441.558 628.644 440.225 629.24 439.884 629.244C435.609 629.276 428.299 628.917 424.255 628.905C422.852 628.903 423.824 629.334 422.251 629.327C417.418 629.301 419.035 628.472 412.979 628.648C410.952 628.705 411.076 629.35 407.199 629.226C404.455 629.135 404.766 627.993 404.331 627.947C403.729 627.895 394.274 628.658 391.217 627.841C397.975 625.997 383.874 627.589 384.534 628.428C380.822 628.131 377.122 627.822 373.434 627.501C372.166 627.675 370.908 627.847 369.603 628.017C354.416 626.56 345.202 626.726 330.569 625.64C329.934 625.603 317.39 624.383 317.988 624.112C325.656 624.086 332.888 624.457 337.609 625.643C345.517 624.228 345.555 625.692 358.311 625.966C362.589 626.049 362.915 625.567 363.407 625.58C380.032 625.98 406.271 626.207 417.592 627.65C420.742 627.283 409.427 627.059 413.828 626.803C416.209 626.887 473.448 625.791 455.174 627.648C457.08 627.572 458.986 627.493 460.894 627.411C462.794 625.826 472.209 625.962 471.181 627.533C472.066 627.194 472.95 626.854 473.835 626.513C475.591 626.199 477.674 625.998 480.6 625.825C491.814 625.512 558.619 622.264 562.104 621.459C562.156 621.086 562.208 620.714 562.26 620.341C532.858 622.187 504.212 624.616 472.075 624.398C473.015 624.719 473.956 625.038 474.898 625.358C462.143 625.221 449.12 624.951 436.334 624.539C449.891 623.866 471.562 622.932 485.768 622.948C488.302 622.954 486.463 623.497 487.047 623.535C488.572 623.634 490.177 622.75 495.635 622.46C501.091 622.183 514.868 622.132 516.112 622.041C518.533 621.887 525.017 620.588 529.137 620.358C534.553 620.057 530.959 620.859 532.046 620.808C536.547 620.597 540.56 620.048 544.082 619.857C549.315 619.582 560.228 619.822 563.777 618.006C560.024 618.23 556.307 618.439 552.569 618.638C572.747 616.625 588.809 617.155 608.441 613.571C612.752 611.259 596.406 613.239 610.175 610.988C607.634 611.288 605.154 611.576 602.642 611.861C602.093 612.306 601.544 612.751 600.994 613.196C596.639 613.361 592.278 613.51 587.913 613.64C589.183 613.868 590.454 614.093 591.725 614.318C576.38 616.062 560.733 617.619 555.244 616.158C554.96 616.628 554.675 617.098 554.39 617.567C540.044 618.106 518.605 621.163 522.494 618.451C521.823 618.62 521.151 618.788 520.48 618.956C511.786 618.896 515.542 619.731 512.286 620.009C511.352 620.106 494.445 620.297 501.896 619.24C485.418 619.338 490.579 621.438 486.046 621.706C475.484 620.933 456.588 623.035 464.526 621.048C462.947 621.014 461.369 620.977 459.792 620.938C454.64 622.468 449.512 620.92 443.921 620.433C442.027 620.419 440.135 620.403 438.244 620.383C436.981 620.874 435.718 621.363 434.454 621.852C416.681 619.595 422.372 625.847 414.192 620.536C415.471 620.229 416.754 619.921 418.028 619.611C421.01 619.475 423.997 619.331 426.987 619.18C415.04 619.046 402.646 618.787 390.614 618.404C375.38 616.595 366.537 617.94 349.472 616.039C347.87 616.108 346.27 616.176 344.672 616.241C346.353 615.121 352.507 615.592 341.047 614.509C340.111 613.619 347.859 613.885 351.389 614.68C352.239 614.876 344.923 615.206 353.115 615.583C358.704 615.821 348.571 614.429 365.338 615.429C364.722 615.201 364.107 614.973 363.492 614.744C365.313 614.815 367.136 614.884 368.963 614.95C370.577 615.481 372.174 616.009 373.745 616.534C377.862 615.961 380.173 615.074 389.576 615.483C387.018 615.727 390.457 616.766 395.133 616.832C395.139 616.487 395.145 616.141 395.151 615.795C406.478 615.753 402.554 616.711 412.019 616.012C412.964 616.294 413.91 616.576 414.857 616.857C420.035 615.787 438.756 614.963 435.356 616.665C440.626 614.998 451.747 615.615 455.923 616.857C456.236 616.508 456.549 616.16 456.862 615.811C459.068 615.704 461.275 615.592 463.484 615.477C464.725 615.659 465.951 615.84 467.179 616.019C468.728 615.776 470.276 615.531 471.825 615.284C472.772 615.604 473.72 615.924 474.668 616.243C477.158 615.762 479.647 615.277 482.135 614.786C483.674 615.012 485.215 615.237 486.756 615.46C486.889 614.75 502.062 614.02 506.33 614.281C507.586 614.015 508.841 613.748 510.096 613.48C510.73 613.793 511.364 614.105 511.999 614.417C512.929 614.098 513.852 613.778 514.778 613.458C516.956 613.624 519.134 613.785 521.314 613.942C530.048 611.786 530.412 613.221 532.429 613.094C536.167 612.864 548.807 610.972 550.929 610.863C553.053 610.766 554.12 611.292 555.835 611.222C584.17 609.963 572.419 609.212 578.058 608.498C581.098 608.091 583.307 608.455 585.997 608.144C590.617 607.661 613.689 604.524 615.082 604.4C617.046 604.285 612.743 607.436 619.015 606.04C619.072 604.616 632.763 604.436 626.209 603.219C631.794 602.729 637.364 602.21 642.916 601.66C642.084 600.068 648.985 600.27 656.436 599.126C667.106 597.561 690.504 592.679 689.9 594.495C692.334 593.688 694.759 592.874 697.176 592.054C714.61 589.597 731.161 585.803 747.984 582.101C797.791 571.174 851.54 555.817 897.369 535.135C899.493 534.177 899.497 534.796 901.102 534.061C909.971 530.12 930.018 519.314 941.314 512.333C944.82 510.223 946.759 509.62 947.853 508.949C951.541 506.663 950.273 506.61 951.935 505.534C954.428 504.054 968.735 494.599 973.062 490.975C975.281 489.221 977.44 486.657 979.976 484.664C980.195 484.491 980.202 485.277 980.385 485.129C984.827 481.275 981.817 483.264 983.365 481.904C994.52 471.957 1004.59 460.806 1013.22 447.834C1015.36 444.669 1018.61 439.966 1020.2 437.007C1020.79 435.901 1019.38 437.69 1021.38 433.858C1022.05 432.542 1022.8 432.345 1023.55 430.848C1026.69 424.342 1025.75 421.474 1029.15 416.191C1033.14 405.021 1035.47 384.493 1034.91 373.609C1034.86 371.012 1035.16 369.72 1035 367.195C1034.96 366.513 1034.82 365.636 1034.65 364.656C1034.35 362.978 1033.98 361.037 1033.81 359.242C1033.53 356.343 1033.57 351.747 1032.85 346.404C1032.11 340.797 1030.65 334.021 1030.39 332.602C1030.1 331.03 1030.6 330.184 1030.3 328.63C1029.39 323.725 1026.15 312.369 1024.25 306.2C1022.37 299.894 1021.42 296.219 1020.72 294.166C1020.06 292.27 1018.77 290.291 1018.45 289.454C1017.95 288.136 1018.4 287.529 1017.72 285.788C1016.6 282.936 1015.05 280.187 1013.22 276.141C981.38 199.71 896.694 167.044 816.827 164.517C807.8 164.099 802.7 164.366 789.343 164.262C783.925 164.253 786.194 163.561 781.977 163.777C780.097 163.881 780.586 164.384 778.211 164.48C767.704 164.89 755.423 165.214 750.859 165.577C749.041 165.716 747.01 166.457 743.304 166.781C715.638 169.153 683.131 173.67 653.433 179.079C637.85 181.853 614.029 186.816 595.839 190.231C582.123 192.609 569.005 195.657 552.767 195.826L555.251 195.626C516.132 202.156 477.193 204.112 442.283 203.319C384.788 201.664 325.392 193.015 273.337 162.875C261.191 155.724 249.531 147.625 238.736 138.324C248.226 147.073 259.984 155.778 272.94 163.555C295.122 176.988 321.152 186.385 344.196 192.232C412.264 209.129 484.46 208.197 555.485 196.881L552.738 197.104C597.129 193.924 632.693 183.223 671.446 177.534C708.017 171.436 754.47 165.839 794.537 166.269C796.352 166.28 800.119 165.839 804.038 165.958C804.882 165.959 815.142 167.073 818.607 167.288C815.398 165.643 828.908 167.675 833.037 168.055C838.311 168.451 849.317 168.759 861.402 171.189C872.296 173.457 869.126 173.55 869.734 173.674C873.505 174.646 875.033 174.049 877.994 174.61C890.781 174.996 948.742 198.749 960.614 211.573C964.064 214.269 963.768 214.83 964.532 215.449C966.538 217.108 969.741 219.099 972.821 222.002C978.301 227.102 983.734 234.014 986.353 237.244C992.742 244.642 1003.78 260.135 1009.34 272.155C1010.9 275.413 1010.25 275.482 1010.93 276.978C1014.19 283.659 1021.26 301.209 1023.57 310.619C1027.37 324.754 1029.75 340.548 1031.53 355.82C1031.36 356.84 1031.2 357.863 1031.03 358.889C1031.46 360.44 1031.88 362.008 1032.29 363.593C1032.32 364.006 1032.35 364.419 1032.38 364.834C1034.24 389.766 1029.85 414.094 1018.26 435.723C1017.02 438.447 1009.24 449.908 1007.67 451.81C1006.52 453.415 1005.9 455.39 1003.98 457.689C1001.28 460.854 1002.71 457.152 998.763 462.448C997.682 463.857 999.235 462.907 996.993 465.719C996.699 466.699 979.539 483.898 978.559 484.258C976.945 485.584 974.761 485.908 974.331 486.236C972.083 487.941 972.733 488.549 971.296 489.819C967.069 493.579 960.557 497.612 959.781 498.171C951.164 504.82 932.953 516.876 922.475 521.858C921.012 522.577 920.871 521.899 920.608 522.015C918.913 522.761 918.241 523.964 916.672 524.798C908.246 529.318 894.061 535.393 885.308 538.951C884.283 539.376 882.259 540.63 880.397 541.366C869.812 545.501 872.967 543.537 872.372 543.766C870.916 544.28 868.63 545.882 864.759 547.409C855.234 551.247 836.279 557.736 825.213 561.089C817.293 563.517 817.162 562.752 816.642 562.902C815.513 563.213 812.576 564.719 807.256 566.323C796.986 569.391 797.97 568.476 793.693 569.676C793.329 569.772 794.118 570.154 789.335 571.488C780.197 574.086 759.701 578.484 749.599 580.688C745.773 581.54 744.879 582.291 741.06 583.114C734.973 584.453 720.871 586.641 719.749 586.84C719.438 586.899 718.86 587.649 717.029 587.997C715.014 588.379 712.967 588.433 711.46 588.713C702.808 590.347 688.324 593.885 692.032 590.991C689.402 591.994 686.76 592.99 684.108 593.979C666.161 596.77 648.525 599.471 630.692 601.764C626.662 602.281 623.237 602.258 619.823 602.671C616.408 603.105 601.393 605.42 598.906 605.665C594.45 606.195 568.885 608.561 565.676 608.716C559.427 609.122 553.351 608.637 550.831 608.996C548.813 609.285 550.727 609.674 546.865 610.089C540.179 610.816 528.735 610.832 526.687 610.951C525.812 611.002 527.474 611.329 519.276 611.797C514.858 612.044 512.467 611.71 510.858 611.789C510.359 611.811 511.142 612.517 502.371 612.804C496.314 612.992 493.714 612.523 493.08 612.546C492.127 612.578 489.85 613.262 486.025 613.37C477.082 613.635 460.764 613.338 452.212 613.393C450.566 613.404 451.132 614.126 444.571 614.132C439.881 614.129 440.697 613.545 438.943 613.536C436.164 613.52 432.026 614.249 425.91 614.225C418.132 614.444 360.945 612.486 357.803 611.943C355.802 611.737 353.482 611.633 352.506 611.279C353.367 611.016 354.229 610.753 355.09 610.489C363.862 611.888 360.357 610.545 362.701 610.557C366.147 610.586 378.828 611.127 381.871 610.926C382.964 610.856 380.483 610.161 386.348 609.97C392.646 609.76 395.442 610.939 397.984 609.429C406.934 611.295 415.627 609.528 405.2 608.936C399.401 608.825 342.521 606.471 331.204 605.475C321.926 604.904 304 604.18 292.704 603.127C286.181 602.562 269.238 600.913 270.069 600.146C264.057 599.456 270.35 600.895 269.075 600.886C266.351 600.894 247.848 598.366 244.453 597.96C226.556 596.013 205.612 594.044 188.348 590.091C189.168 590.004 189.99 589.916 190.813 589.827C194.785 590.111 212.078 593.307 214.136 592.493C188.719 588.888 163.102 584.391 138.33 578.69C138.993 579.954 107.472 571.924 106.703 571.038C107.337 570.766 107.971 570.493 108.606 570.22C124.912 576.465 124.654 574.007 135.803 577.9C140.429 578.993 139.199 577.962 141.531 578.352C165.215 582.099 141.398 579.937 159.822 583.095C154.471 580.958 169.688 583.619 176.089 584.597C177.482 584.875 197.569 588.524 200.131 588.85C213.18 590.839 236.9 593.381 250.02 595.371C260.473 596.597 266.408 596.443 276.18 597.182C283.604 597.727 281.519 598.059 284.912 598.362C292.028 598.985 294.521 597.575 298.958 600.151C303.867 600.249 308.807 600.325 313.775 600.379C313.752 600.724 313.729 601.069 313.705 601.414C316.816 601.621 319.939 601.821 323.074 602.012C324.017 601.724 324.961 601.435 325.905 601.146C335.616 602.179 331.495 602.769 333.262 603.85C335.359 604.032 337.461 604.209 339.568 604.383C341.24 603.715 342.912 603.045 344.585 602.372C354.015 602.882 363.591 603.316 373.133 603.668C373.73 604.031 374.327 604.393 374.925 604.756C374.955 604.412 374.984 604.068 375.014 603.724C390.898 604.121 407.136 604.302 423.198 604.259C427.518 603.745 401.665 603.168 399.725 603.056C388.863 602.782 360.211 602.425 360.129 601.146C353.29 601.836 333.124 600.629 327.036 599.138C336.433 599.754 345.935 600.292 355.524 600.751C355.231 600.327 354.938 599.903 354.645 599.479C366.49 601.613 368.475 601.589 380.591 600.356C380.588 600.909 380.585 601.461 380.582 602.013C389.096 600.335 404.181 603.817 404.658 601.442C409.22 601.69 413.811 601.921 418.388 602.133C428.185 601.817 412.887 600.215 451.352 600.577C454.01 600.588 453.465 601.202 457.464 601.092C458.619 601.054 465.22 600.087 477.757 599.819C479.718 599.776 479.881 600.295 481.92 600.299C486.626 600.316 495.962 598.926 491.769 600.772C510.444 600.527 502.656 599.432 508.414 598.631C512.252 598.084 511.525 599.118 514.844 598.727C518.949 598.223 515.875 597.431 532.385 596.928C530.54 597.108 528.694 597.285 526.848 597.46C527.795 597.68 528.741 597.899 529.688 598.117C539.06 596.895 538.232 597.894 542.564 596.07C549.449 596.294 555.336 595.934 564.694 595.064C582.834 593.3 573.391 592.496 594.24 592.756C597.549 592.114 600.851 591.462 604.145 590.801C609.701 590.87 605.351 592.175 613.602 591.434C606.984 590.54 624.406 589.18 627.131 587.361C627.478 587.667 627.825 587.973 628.173 588.279C629.999 588.057 631.824 587.832 633.646 587.603C633.617 587.327 633.589 587.051 633.559 586.776C636.011 586.677 638.459 586.573 640.905 586.463C642.688 585.953 644.468 585.44 646.244 584.924C649.304 585.097 652.344 585.263 655.466 585.408C657.369 585.179 659.269 584.947 661.166 584.711C660.508 584.389 659.85 584.067 659.192 583.745C661.643 583.531 664.09 583.311 666.532 583.086C663.61 582.832 665.281 581.799 672.791 580.665C678.971 579.71 672.258 582.231 685.405 579.504C686.338 579.297 687.734 578.099 700.236 575.745C715.314 572.836 708.095 574.867 710.79 574.404C711.318 574.31 715.815 572.954 720.062 572.049C722.474 571.537 724.875 571.476 725.193 571.411C726.676 571.095 726.995 570.44 729.042 570.003C734.252 568.895 741.191 567.716 746.428 566.527C748.777 565.996 750.901 565.165 751.941 564.924C753.557 564.555 755.719 564.597 757.344 564.217C763.365 562.819 771.912 558.924 775.22 560.574C780.192 557.055 793.059 556.375 791.753 555.172C807.29 551.875 846.204 537.059 845.739 539.629C853.226 534.667 852.974 536.373 856.353 535.082C860.083 533.632 858.036 533.966 861.127 532.798C868.402 530.03 875.225 527.426 882.06 524.464C881.125 525.245 880.183 526.025 879.233 526.804C886.484 523.79 883.716 524.142 890.818 520.76C904.269 514.168 898.805 517.372 901.201 517.244C900.392 516.757 915.87 509.02 917.313 508.253C918.237 507.809 914.867 511.008 923.715 505.64C923.017 505.64 922.371 505.61 921.714 505.584C926.238 503.666 937.136 496.315 938.912 495.232C939.766 494.752 945.786 494.154 948.407 489.629C949.076 489.582 949.718 489.551 950.413 489.482C954.731 485.918 958.817 482.31 962.661 478.667C963.706 478.62 964.751 478.566 965.796 478.507C967.087 477.44 968.355 476.366 969.602 475.288C968.414 475.587 967.223 475.878 966.028 476.162C973.874 470.053 982.309 460.146 984.89 459.984C986.095 458.173 987.247 456.363 988.344 454.554C989.708 453.913 991.011 453.319 992.406 452.585C998.529 444.597 998.136 444.181 1001.21 438.351C1001.48 438.825 1001.75 439.302 1002.01 439.78C1004.11 435.384 1007.92 427.391 1010.49 421.091C1011.78 418.124 1014.29 413.15 1014.46 412.395C1014.72 411.616 1014.3 403.785 1016.62 403.544C1018.22 392.553 1019.41 387.734 1019.74 383.296C1019.89 380.373 1019.4 379.015 1019.35 375.651C1019.29 372.231 1019.24 368.709 1019.07 365.885C1018.99 364.579 1018.91 363.428 1018.81 362.489C1018.63 360.646 1018.06 360.357 1017.93 359.103C1017.23 353.223 1018.15 356.578 1017.39 350.489C1017.31 349.93 1016.12 345.594 1015.44 340.82C1015.1 338.157 1014.44 330.594 1014.3 330.029C1013.7 327.271 1012.83 329.666 1012.35 320.107C1012.14 320.435 1011.94 320.764 1011.73 321.091C1008.35 310.142 1008.67 307.687 1008.13 305.47C1008.05 305.174 1006.74 302.606 1006.27 301.006C1005.48 298.295 1005.7 297.033 1005.53 296.439C1004.97 294.514 1001.88 287.238 1000.48 282.659C999.316 284.231 991.449 269.567 991.173 265.422C989.312 263.076 987.459 260.889 985.491 258.67C985.034 257.355 984.563 256.051 984.076 254.754C983.326 254.285 982.576 253.825 981.825 253.376C979.923 249.463 977.968 245.76 975.706 241.968C974.95 242.254 974.196 242.545 973.445 242.839C972.726 241.882 971.998 240.936 971.26 240.001C971.08 238.909 970.887 237.816 970.681 236.723C969.568 235.717 968.444 234.732 967.309 233.769C966.741 233.82 966.174 233.875 965.608 233.933C959.495 228.954 965.399 228.121 951.156 221.499C949.465 219.788 947.724 218.109 945.94 216.466C942.772 216.308 939.103 212.719 935.435 210.81C932.857 209.475 932.679 210.12 929.198 208.257C925.693 206.421 926.083 205.944 925.813 205.795C922.92 204.296 920.457 203.765 918.33 202.682C918.007 202.523 917.504 201.447 914.693 200.198C911.869 198.961 909.856 198.995 905.584 197.241C903.405 196.36 902.973 195.533 901 194.792C891.494 191.234 880.884 191.816 874.166 186.439C872.315 186.466 859.677 185.738 854.247 184.905C845.873 183.545 849.209 183.282 845.868 182.707C845.381 182.637 842.798 182.519 835.616 181.781C834.33 181.652 834.589 182.103 834.404 182.092C826.095 181.247 809.661 180.1 800.283 180.015C799.438 180.005 795.078 181.114 787.597 179.63C776.595 180.887 755.528 179.423 740.875 182.604C738.843 182.825 736.337 182.641 735.439 182.744C727.642 183.688 730.598 184.549 712.802 184.82C714.331 185.29 710.212 186.388 704.378 187.128C695.628 188.26 701.676 186.182 694.67 187.285C694.72 187.625 694.77 187.966 694.819 188.307C678.338 189.821 675.261 191.833 659.12 194.626C653.052 195.686 644.318 196.509 642.966 196.758C642.503 196.843 635.969 198.903 635.388 199.02C631.898 199.7 629.889 199.691 626.961 200.244C616.729 202.183 605.147 205.484 606.859 203.16C604.095 204.103 601.399 205.028 598.774 205.933C587.559 205.884 579.884 210.026 577.124 208.373C575.116 209.098 573.61 209.741 571.193 210.479C568.261 210.847 565.444 211.148 562.692 211.365C559.334 211.63 555.894 211.79 552.407 211.701L558.158 211.236C514.862 218.168 473.529 220.191 430.751 218.244C428.854 218.919 407.928 217.26 406.918 216.963C402.052 216.035 407.371 215.16 397.325 214.432C396.154 214.932 394.977 215.427 393.794 215.918C381.117 214.553 387.289 214.678 382.374 213.584C380.286 213.36 380.888 213.943 378.062 213.552C362.742 211.703 331.396 204.679 314.941 198.76C311.62 197.634 312.269 197.367 311.241 197.006C308.411 196.014 302.651 194.514 297.02 192.184C287.196 188.133 276.323 182.958 265.376 176.504C238.349 161.017 210.315 136.567 194.393 112.788C192.848 110.547 193.118 109.969 192.134 108.472C190.757 106.406 187.366 101.892 186.072 99.597C184.819 97.4119 184.404 95.8709 183.174 93.561C177.411 82.9607 170.57 68.4845 167.627 58.2524C167.512 57.8556 166.856 54.8352 166.33 52.3365C165.79 49.7816 165.365 47.809 165.399 47.7274C165.533 47.0898 166.687 48.0618 167.317 47.9984C167.628 47.9567 167.775 47.5502 167.585 46.5509C167.426 45.6049 166.719 43.7686 166.168 42.6734C167.069 43.2782 168.314 44.7028 169.065 45.3473C169.823 45.999 170.237 46.0015 170.253 45.2591C170.482 43.8859 167.951 38.9976 167.778 38.9326C168.027 37.7653 173.374 44.7222 177.053 53.5874C177.267 53.5108 177.481 53.4341 177.695 53.3575C175.591 45.2346 171.215 36.1209 168.402 35.9728C168.587 35.8072 168.776 35.6475 168.971 35.4955C172.428 34.0334 179.844 48.7574 184.352 56.5192C179.959 43.6675 176.624 30.679 167.953 29.3041C168.453 29.1935 168.969 29.1087 169.459 29.0444C171.739 29.2632 174.838 30.5494 177.575 33.7524C180.293 36.8255 182.533 41.1045 183.797 43.2948C188.63 52.201 187.126 48.0006 184.732 42.3191C182.45 36.5351 178.003 30.7908 180.119 32.7685C191.072 49.9859 196.799 72.9077 209.234 91.3075C206.18 93.7394 181.024 10.0155 168.485 21.0978C176.066 21.364 182.679 26.9867 186.295 32.9934C185.067 30.0206 183.477 26.9749 181.06 24.2402C181.936 24.7598 182.767 25.325 183.559 25.9201C192.758 36 196.029 47.2878 201.217 57.5725C194.013 41.8017 190.282 28.2192 179.466 20.5693C168.215 13.7677 160.055 15.9305 154.882 14.6237C156.016 14.2473 157.135 13.9075 158.244 13.6061C160.489 13.9335 165.212 13.3628 171.731 14.7747C178.417 15.9596 186.114 21.6664 190.014 27.939C197.889 40.3893 201.92 52.975 206.295 61.383C205.378 57.7293 198.529 42.4656 197.2 38.6586C196.873 37.6229 198.902 40.8114 198.124 38.4438C196.938 35.3972 194.289 26.8882 186.956 19.3376C179.221 11.4169 168.988 10.786 172.388 10.6772C173.255 10.7617 178.743 11.2477 185.073 15.5776C191.399 19.866 195.94 26.7511 199.07 32.7288C205.191 44.8641 209.351 55.6084 211.108 59.2147C207.697 50.5959 204.938 41.7579 200.118 31.3478C197.579 26.2042 194.456 20.0639 187.719 14.381C180.961 8.52072 170.905 6.19461 163.785 6.41916C172.352 4.62433 187.212 8.00946 195.383 17.1925C203.638 25.8288 207.476 34.8596 211.885 45.0109C213.358 47.7554 211.083 39.289 204.931 26.3274C201.859 20.052 195.751 10.8072 186.651 5.63897C177.73 0.530449 170.854 0.450441 170.538 0.165016C178.544 0.455742 188.727 4.45407 195.061 10.1717C201.532 15.7995 204.983 21.3321 207.803 25.9745C203.852 18.7471 195.182 5.04829 178.599 0.536867C178.603 0.357903 178.603 0.178127 178.608 0C188.88 2.50309 197.688 9.88157 202.303 15.7812C207.155 21.8142 209.869 27.0063 212.288 31.6317C216.968 40.8614 220.291 48.7742 224.127 57.0306C224.676 56.1856 220.181 46.2007 217.853 40.4867ZM242.37 592.383C242.062 591.586 249.181 592.543 253.258 592.997C252.662 592.793 252.067 592.589 251.472 592.384C260.063 593.512 276.567 595.382 277.341 593.958C283.731 594.354 280.802 595.371 282.851 595.7C283.688 595.834 291.752 595.784 298.228 597.187C299.78 597.304 301.335 597.418 302.894 597.529C303.231 597.071 303.568 596.612 303.905 596.153C306.035 596.896 308.173 597.636 310.32 598.372C287.761 596.919 264.48 594.892 242.402 592.387C242.391 592.386 242.38 592.384 242.37 592.383ZM469.587 601.446C477.891 601.529 490.659 601.512 488.037 600.279C482.785 600.532 477.536 600.762 472.292 600.967C471.391 601.128 470.489 601.287 469.587 601.446ZM977.2 241.814C974.133 236.269 969.605 232.939 962.721 226.444C962.547 226.658 962.374 226.871 962.201 227.085C965.619 229.157 972.48 236.444 977.2 241.814ZM46.356 548.481C45.1544 547.712 43.991 546.943 42.8677 546.175C48.3708 547.601 49.1423 549.194 54.9447 551.872C55.2826 552.024 55.3132 551.664 55.4305 551.718C56.7981 552.347 57.9156 553.316 59.2038 553.894C61.705 555.008 63.9014 555.548 68.6621 557.515C72.3815 559.033 72.2239 559.646 73.5777 560.157C74.9257 560.692 85.682 562.787 92.9636 565.902C105.827 572.238 48.9352 552.083 46.356 548.481ZM19.7732 525.921C20.2576 526.622 20.8068 527.352 21.4259 528.108C20.1489 527.288 20.3725 527.965 21.4322 529.36C22.5 530.773 24.6303 532.898 26.3841 534.433C25.6456 535.327 18.1687 527.057 16.9931 524.52C17.8765 525 18.801 525.464 19.7732 525.921ZM178.297 588.885C172.68 587.98 173.846 586.968 174.136 586.662C175.902 586.984 177.68 587.303 179.467 587.619C179.077 588.041 178.687 588.463 178.297 588.885ZM136.075 580.711C137.897 580.326 149.911 582.653 155.864 583.774C156.124 583.826 154.406 583.934 158.594 584.74C159.955 585.025 172.32 585.74 169.308 587.032C158.3 585.18 146.659 582.968 136.09 580.714C136.085 580.713 136.08 580.712 136.075 580.711ZM123.948 577.271C126.323 577.611 128.725 577.943 131.152 578.267C132.262 578.926 133.251 579.553 134.312 580.194C131.862 579.715 129.111 579.15 126.429 578.581C125.597 578.145 124.77 577.708 123.948 577.271ZM404.341 206.851C404.879 207.312 405.418 207.773 405.958 208.232C408.169 208.723 419.208 207.792 415.781 207.185C411.941 207.115 408.168 207.008 404.341 206.851ZM358.717 199.17C356.518 198.506 354.322 197.821 352.132 197.116C349.415 197.209 346.684 197.271 343.942 197.299C355.007 200.576 366.937 203.272 365.375 200.916C367.95 201.401 370.523 201.86 373.093 202.294C370.791 202.746 371.013 203.108 377.699 204.717C379.376 203.796 386.23 205.468 394.306 206.159C388.47 205.398 382.69 204.532 376.868 203.536C376.9 203.332 376.933 203.129 376.965 202.925C389.906 204.949 374.019 201.353 365.488 200.512C364.876 200.117 364.264 199.72 363.658 199.323C362.015 199.283 360.368 199.232 358.717 199.17ZM1004.82 449.633C1005.8 448.612 1006.77 447.582 1007.72 446.541C1008.41 440.555 1004.67 451.185 997.843 456.084C1000.76 455.152 993.076 464.233 992.601 464.766C993.936 464.109 995.263 463.438 996.581 462.752C999.406 458.656 1002.36 454.05 1004.82 449.633ZM1024.45 415.794C1021.91 419.892 1028.56 397.729 1029.06 389.718C1029.35 387.888 1030.35 384.598 1030.32 383.214C1030.1 382.368 1029.86 381.524 1029.62 380.682C1030.34 380.023 1030.22 372.072 1029.18 365.087C1028.75 361.996 1028.29 359.197 1027.95 357.286C1028.23 356.629 1028.51 355.973 1028.78 355.317C1028.39 352.934 1027.98 350.584 1027.54 348.269C1027.92 348.518 1028.3 348.769 1028.68 349.022C1028.04 347.297 1027.4 345.596 1026.74 343.92C1025.28 337.193 1027.79 341.21 1026.36 336.064C1024.69 330.216 1025.27 340.173 1024.47 339.944C1025.4 344.37 1027.15 355 1027.59 360.013C1027.79 362.133 1026.98 360.94 1027.58 365.214C1027.77 366.589 1028.11 368.569 1028.6 371.478C1028.33 373.973 1027.99 376.419 1027.59 378.815C1028.04 383.257 1028.27 387.58 1028.26 392.033C1027.67 392.806 1027.08 393.567 1026.48 394.314C1026.44 394.79 1025.51 405.016 1025.9 404.562C1024.06 408.396 1021.65 416.413 1017.98 424.6C1017.88 425.495 1017.76 426.392 1017.64 427.291C1020.64 419.094 1019.01 424.866 1020.5 422.664C1021.36 421.393 1023.52 417.276 1024.45 415.794ZM475.794 207.98C458.613 209.528 469.307 208.47 450.71 208.438C452.003 209.074 453.292 209.705 454.579 210.332C463.792 209.288 478.781 209.589 475.811 207.979C475.805 207.98 475.799 207.98 475.794 207.98ZM294.558 181.057C304.152 184.733 299.76 181.98 311.919 186.256C311.924 186.258 311.93 186.26 311.936 186.262C305.71 183.916 299.53 181.341 293.455 178.527C293.817 179.371 294.185 180.214 294.558 181.057ZM851.649 174.553C860.204 176.062 858.632 175.331 866.173 177.647C877.793 178.709 868.128 176.982 868.314 175.942C865.63 175.748 862.938 175.588 860.238 175.461C853.951 173.452 860.143 173.924 860.162 173.836C860.157 173.835 860.151 173.834 860.146 173.833C860.196 173.519 860.421 173.48 857.963 172.898C855.845 173.43 853.725 173.98 851.649 174.553ZM888.204 180.478C885.167 180.421 883.725 180.921 890.979 183.384C890.984 183.385 890.989 183.387 890.994 183.388C892.031 182.017 898.783 185.344 901.952 186.326C902.837 186.44 903.721 186.56 904.604 186.684C899.283 184.437 893.736 182.351 888.204 180.478ZM992.897 247.511C991.474 248.531 987.734 243.522 991.506 251.668C992.499 253.061 993.508 254.53 994.415 255.887C995.328 256.603 996.239 257.334 997.148 258.083C1001.41 268.08 1004.87 274.47 1005.38 273.838C1005.86 273.562 1003.69 265.437 992.703 250.848C992.699 250.844 992.695 250.84 992.691 250.837C992.77 249.731 992.838 248.622 992.897 247.511ZM966.971 219.067C966.16 219.575 965.352 220.087 964.547 220.603C962.324 215.805 956.286 213.527 949.308 206.99C948.44 206.748 947.571 206.512 946.702 206.285C944.578 203.138 912.919 187.732 919.182 192.427C921.996 194.264 928.817 196.601 929.364 196.925C931.215 197.926 933.28 199.867 936.365 201.529C938.149 202.483 942.328 203.816 945.821 206.05C953.813 210.96 965.395 223.06 975.229 230.103C975.633 230.916 976.03 231.732 976.42 232.552C982.528 239.021 981.347 236.336 985.67 243.35C989.124 244.289 984.104 237.643 978.355 231.745C972.746 225.899 966.666 220.95 970.931 222.424C970.927 222.421 970.923 222.417 970.919 222.414C969.618 221.274 968.301 220.159 966.971 219.067ZM717.114 174.694C716.484 173.965 705.284 176.604 707.71 174.411C704.091 175.539 700.507 176.685 696.962 177.846C697.014 178.015 697.067 178.183 697.119 178.351C700.712 177.704 704.339 177.072 707.993 176.458C708.043 176.73 708.093 177.002 708.142 177.274C713.522 175.477 736.244 173.45 735.63 174.56C736.794 174.032 737.962 173.507 739.133 172.985C750.076 173.121 759.318 171.25 771.179 171.819C772.079 171.438 772.983 171.058 773.882 170.681C774.486 170.934 775.09 171.187 775.693 171.442C779.976 171.324 784.262 171.252 788.543 171.233C802.506 169.972 775.319 168.836 771.99 169.301C771.551 169.344 771.648 170.05 768.905 170.289C764.043 170.569 736.694 171.894 728.265 173.41C728.142 172.946 728.019 172.482 727.895 172.019C724.275 172.889 720.68 173.782 717.114 174.694ZM1013.86 292.032C1013.61 292.731 1013.34 293.429 1013.08 294.126C1016.82 303.215 1018.07 309.829 1018.89 306.793C1018.89 306.788 1018.89 306.783 1018.89 306.777C1017.34 301.664 1015.66 296.751 1013.86 292.032ZM428.772 609.643C429.055 610.601 434.213 610.958 440.894 610.215C440.57 609.939 440.246 609.664 439.922 609.388C436.448 610.226 432.086 608.849 421.405 609.015C421.404 609.498 421.402 609.98 421.401 610.463C423.856 610.195 426.313 609.921 428.772 609.643ZM1010.86 283.741C1010.22 280.589 1005.1 273.634 1007.34 278.729C1009.03 282.634 1011.21 285.403 1010.86 283.741ZM259.398 160.94C261.585 162.478 263.675 163.909 265.902 165.382C267.295 165.75 268.699 166.111 270.114 166.468C270.108 166.464 270.103 166.461 270.097 166.458C266.41 164.646 262.923 162.856 259.398 160.94ZM821.912 171.778C829.927 172.181 837.914 172.811 845.838 173.704C845.949 173.447 846.06 173.191 846.171 172.935C838.124 172.964 834.978 171.687 833.123 171.452C833.131 171.453 833.139 171.453 833.147 171.454C827.185 170.733 821.45 170.221 815.727 169.652C817.801 170.346 819.863 171.055 821.912 171.778ZM794.29 169.341C795.661 171.258 797.429 171.347 809.855 170.341C809.372 170.093 808.888 169.846 808.402 169.6C801.964 169.569 798.194 170.014 799.336 169.03C797.654 169.125 795.972 169.229 794.29 169.341ZM916.299 190.209C915.235 189.034 904.329 185.648 904.807 186.197C905.045 186.282 918.461 192.284 916.299 190.209ZM336.67 607.757C339.432 608.039 342.202 608.315 344.981 608.584C341.266 608.615 337.564 608.633 333.874 608.64C334.806 608.346 335.738 608.052 336.67 607.757ZM305.799 608.544C303.835 608.156 310.389 606.944 298.582 605.622C307.179 606.244 315.877 606.8 324.664 607.288C320.528 607.316 316.409 607.33 312.31 607.329C312.989 607.864 313.67 608.399 314.352 608.934C311.491 608.811 308.64 608.681 305.799 608.544ZM296.632 606.61C301.119 608.285 276.924 606.397 274.439 605.953C273.927 605.868 271.576 604.663 270.701 604.367C274.427 604.723 278.177 605.065 281.948 605.395C280.713 604.977 279.482 604.558 278.253 604.137C282.728 604.435 286.913 604.687 291.212 604.932C289.358 605.092 287.508 605.248 285.662 605.402C289.299 605.816 292.955 606.219 296.632 606.61ZM395.237 610.92C392.126 610.833 389.021 610.738 385.924 610.634C386.532 611.131 387.141 611.627 387.75 612.123C389.608 612.164 391.468 612.202 393.33 612.236C393.966 611.798 394.602 611.359 395.237 610.92ZM331.934 609.259C336.519 607.19 348.524 612.877 334.305 610.264C332.876 609.996 331.498 609.46 331.934 609.259ZM265.218 604.787C255.426 605.492 257.966 602.003 266.951 604.003C267.404 604.106 265.954 604.735 265.218 604.787ZM193.54 595.633C192.765 595.491 191.551 594.092 183.996 593.981C182.806 593.638 181.621 593.294 180.441 592.948C183.2 592.943 208.13 596.53 204.362 597.127C200.831 596.616 197.413 596.292 193.54 595.633ZM216.433 603.577C220.095 604.05 223.788 604.509 227.511 604.955C226.333 604.42 225.16 603.885 223.991 603.348C225.822 603.486 227.66 603.62 229.505 603.75C232.554 604.798 235.628 605.836 238.729 606.866C230.502 605.988 222.409 605.044 214.463 604.038C215.119 603.885 215.776 603.731 216.433 603.577ZM314.765 614.349C307.593 613.4 298.774 613.29 287.351 612.255C287.346 612.254 287.34 612.252 287.335 612.25C286.766 612.197 285.799 611.593 283.973 611.416C282.365 611.35 250.818 608.809 253.463 608.132C265.527 608.627 270.028 610.228 273.134 608.555C273.691 609.023 274.249 609.491 274.808 609.958C286.706 611.762 289.734 610.545 296.343 610.542C296.294 610.851 296.244 611.161 296.194 611.47C300.528 611.838 304.888 612.19 309.272 612.525C308.668 612.277 308.064 612.029 307.462 611.781C309.011 611.89 310.563 611.997 312.118 612.102C315.842 613.28 320.664 613.801 314.765 614.349ZM200.104 600.677C195.752 602.502 164.104 595.572 148.395 592.575C156.616 592.881 168.704 596.222 177.094 597.705C193.704 600.602 182.364 597.758 185.247 597.867C186.657 597.924 196.007 600.987 200.104 600.677ZM340.908 615.436C332.477 614.822 327.979 615.113 320.537 613.787C321.166 613.652 321.796 613.518 322.425 613.383C325.073 613.737 345.101 615.284 340.908 615.436ZM127.055 587.08C142.435 591.618 135.154 587.679 142.946 591.086C137.48 589.987 132.471 588.935 126.908 587.682C126.957 587.481 127.006 587.281 127.055 587.08ZM1011.48 264.046C1008.41 258.017 1004.94 251.544 1002.07 248.816C1004.36 252.562 1006.53 256.428 1008.6 260.446C1009.57 261.623 1010.53 262.823 1011.48 264.046ZM1026.23 449.917C1027.24 448.723 1029.77 442.953 1030.06 442.344C1030.64 441.256 1030.75 441.697 1030.83 441.72C1034.44 434.501 1030.26 440.712 1032.65 435.294C1033.18 434.429 1038.98 421.805 1040.37 416.347C1042.85 408.075 1044.39 399.472 1044.81 396.206C1045.63 390.658 1045.75 380.885 1045.41 371.736C1045.29 368.337 1045.68 366.9 1045.53 363.796C1045.51 363.47 1045.49 363.126 1045.45 362.76C1044.24 338.336 1033.07 292.504 1023.78 273.263C1021.74 268.405 1020.35 263.885 1018.92 261.276C1017.65 259.415 1016.35 257.597 1015.04 255.819C1013.83 248.683 1010.85 248.035 1006.59 242.088C1003.84 238.329 1003.14 236.198 1002.77 235.693C1000.3 232.412 998.777 231.069 996.723 228.657C994.395 225.906 991.12 221.773 990.192 220.883C989.568 220.403 990.812 222.592 980.873 212.946C970.454 203.171 959.145 194.792 946.588 187.569C949.279 192.534 953.795 192.904 958.76 196.127C960.081 196.994 958.989 196.816 960.129 197.579C963.37 199.715 969.546 203.84 971.928 205.991C974.513 208.304 972.909 208.353 976.471 210.939C976.651 211.071 976.424 210.266 977.248 210.899C985.432 217.425 987.311 220.247 995.792 230.349C1003 235.918 1027.95 282.406 1027.04 285.229C1027.94 290.1 1023.7 278.736 1017.73 267.024C1011.67 254.73 1003.13 242.195 1001.15 239.484C999.853 237.627 1001.66 239.251 1000.51 237.529C999.985 236.747 994.695 231.207 989.344 225.416C983.221 218.356 969.559 205.329 962.123 200.301C898.132 155.367 815.623 152.414 738.73 158.938C737.063 159.092 734.984 159.843 729.555 160.397C671.143 165.515 613.802 181.559 552.956 187.51L553.728 187.448C509.828 194.584 465.224 196.73 421.25 194.099C398.668 192.67 376.187 190.282 353.888 184.756C351.023 184.526 348.153 184.259 345.279 183.955C352.419 185.513 365.339 189.119 366.542 189.32C366.975 189.405 369.789 189.479 374.176 190.256C380.332 191.334 383.029 192.109 383.531 192.189C385.109 192.422 384.138 191.844 385.643 192.063C396.887 193.663 405.636 194.437 416.002 195.235C427.67 196.082 433.622 197.106 442.215 196.47C443.169 196.839 444.122 197.206 445.073 197.57C451.498 196.503 489.527 196.026 504.786 194.586C509.696 194.224 508.844 194.89 510.452 194.756C511.42 194.649 511.083 193.987 523.692 192.833C530.085 192.212 531.663 192.581 534.99 192.145C536.749 191.907 536.211 191.403 538.827 191.052C544.019 190.346 549.225 189.598 553.977 188.784L552.925 188.869C561.757 188.992 569.711 187.779 578.584 186.465C582.822 185.799 582.591 186.31 583.52 186.148C586.542 185.611 592.462 183.738 600.329 182.261C613.748 179.733 640.515 174.604 651.444 173.112C653.08 172.881 654.563 173.202 655.743 172.987C657.489 172.667 658.081 171.958 658.39 171.901C664.307 170.873 660.832 172.032 664.807 171.221C666.951 170.787 669.14 169.725 674.199 168.829C680.732 167.682 679.584 168.692 682.334 168.182C682.626 168.124 682.622 167.553 685.36 167.118C695.79 165.451 710.828 163.309 720.575 162.225C723.398 161.905 725.542 162.047 729.509 161.643C737.375 160.445 782.672 157.519 786.365 158.098C786.756 158.117 782.753 159.003 789.155 158.888C791.011 158.521 792.871 158.164 794.733 157.817C797.847 158.368 800.951 158.947 804.042 159.554C803.951 157.559 822.287 157.932 821.981 159.959C823.969 160.15 825.953 160.355 827.932 160.574C832.165 159.534 834.875 160.205 842.967 160.259C844.169 160.806 845.365 161.358 846.555 161.916C846.899 161.679 847.244 161.442 847.589 161.206C851.645 163.182 858.758 162.714 859.622 162.854C862.876 163.328 865.234 164.127 866.744 164.384C872.361 165.288 884.661 167.406 891.005 169.422C891.303 169.516 890.844 170.05 892.642 170.622C895.861 171.668 896.496 170.861 900.531 173.241C901.491 173.249 902.451 173.263 903.412 173.281C904.299 173.716 905.181 174.156 906.059 174.6C911.515 176.347 916.938 178.298 922.264 180.454C917.026 179.478 922.367 182.238 927.831 183.801C929.687 184.333 928.423 183.028 929.044 183.204C930.083 183.099 952.538 195.694 953.465 197.33C954.592 197.815 955.717 198.312 956.838 198.822C957.113 199.511 957.383 200.199 957.647 200.888C958.277 201.148 958.906 201.412 959.534 201.68C964.651 205.901 978.771 215.903 980.794 218.358C981.911 219.596 979.69 219.701 985.277 225.333C985.821 225.204 986.366 225.078 986.913 224.954C988.21 226.261 989.492 227.596 990.758 228.958C993.059 231.665 995.396 235.998 995.046 236.5C995.97 237.125 996.893 237.764 997.814 238.417C998.795 241.341 1007.6 253.779 1011.1 258.993C1011.69 260.758 1012.26 262.539 1012.81 264.335C1014.35 266.405 1015.73 268.281 1017.14 270.296C1019.61 275.318 1016.5 270.242 1016.95 271.35C1017.98 273.548 1024.07 285.336 1022.35 285.109C1023.02 286.848 1023.6 288.442 1024.18 290.075C1024.87 290.774 1025.55 291.483 1026.24 292.202C1025.84 295.514 1028.1 300.262 1030.41 311.157C1030.94 311.926 1031.48 312.703 1032.01 313.487C1032.34 316.78 1032.62 320.12 1032.85 323.508C1033.53 324.073 1034.2 324.646 1034.87 325.224C1035.23 326.661 1035.59 328.111 1035.94 329.574C1035.32 332.822 1037.5 337.957 1037.37 340.598C1037.19 344.535 1035.98 341.752 1034.62 334.588C1034.01 335.323 1037.31 356.434 1037.65 361.939C1037.79 361.579 1037.93 361.219 1038.08 360.859C1037.47 355.537 1036.75 350.36 1035.94 345.324C1037.58 340.761 1038.85 354.63 1039.63 361.39C1039.67 361.679 1039.95 362.592 1040.27 364.211C1040.63 365.956 1041.02 368.537 1041.07 371.965C1041.2 374.545 1039.71 384.123 1039.43 385.86C1037.37 400.146 1040.59 389.975 1036.53 403.884C1038.27 401.17 1035.83 409.17 1033.35 417.349C1033.09 418.773 1029.4 430.751 1028.93 431.507C1026.81 436.372 1028.41 430.738 1025.23 437.714C1025.05 438.66 1024.86 439.608 1024.66 440.558C1023.8 442.146 1022.91 443.716 1022.02 445.224C1014.41 453.097 1014.24 455.984 1012.13 459.308C1011.25 460.624 1011.99 458.627 1009.59 461.956C1008.7 463.172 1007.96 465.002 1005.43 468.049C997.193 477.69 992.311 479.268 985.058 489.026C983.493 489.954 981.912 490.868 980.316 491.769C979.654 492.868 978.978 493.967 978.288 495.067C970.183 500.072 973.569 498.869 970.832 500.981C963.324 506.852 948.141 516.435 946.054 516.47C940.561 522.579 930.778 525.143 928.316 526.571C926.869 527.676 925.405 528.776 923.924 529.872C921.903 530.632 919.866 531.38 917.815 532.118C919.793 533.634 908.691 536.731 907.658 537.148C906.363 537.805 891.232 545.47 885.235 547.89C879.344 550.392 868.481 553.994 867.517 554.342C866.349 554.802 856.651 559.117 848.501 561.919C841.365 564.78 798.693 576.656 801.504 576.663C804.406 576.143 808.475 575.238 811.943 574.361C822.387 572.501 885.286 551.048 899.632 543.566C930.589 529.809 960.581 512.505 985.881 490.505C987.332 489.236 987.873 489.523 989.175 488.355C991.162 486.599 995.511 481.611 997.259 479.812C1003.96 473.165 1011.09 464.612 1014.15 460.42C1020.88 451.327 1024.9 445.131 1028.86 437.47C1030.18 435.123 1035.03 422.643 1037.67 413.968C1038.28 412.43 1038.87 410.876 1039.43 409.306C1038.61 413.952 1035.15 425.867 1032.73 431.161C1029.31 439.072 1026.55 442.817 1025.01 445.552C1023.84 447.858 1016.92 459.515 1012.87 464.459C1011.66 466.008 1010.94 465.945 1009.88 467.253C1004.39 474.081 996.251 482.553 990.697 488.406C992.858 486.339 978.011 498.831 976.996 499.396C975.597 500.508 974.424 502.162 971.461 504.399C965.745 508.637 965.602 507.316 959.262 513.104C957.301 514.016 955.322 514.913 953.326 515.796C954.304 517.323 929.215 529.873 923.317 534.769C923.235 535.468 954.93 517.932 957.042 516.002C971.988 506.619 992.281 489.657 1004.03 476.855C1007.64 473.369 1018.6 461.009 1019.17 459.866C1020.31 458.219 1018.82 459.376 1019.3 458.661C1028.67 443.888 1024.65 451.687 1026.23 449.917ZM296.071 614.05C301.339 614.524 306.647 614.974 311.991 615.399C311.579 615.718 311.168 616.036 310.756 616.355C308.316 616.054 305.885 615.748 303.461 615.437C301.576 615.506 299.694 615.573 297.816 615.636C297.233 615.108 296.651 614.579 296.071 614.05ZM283.027 614.432C278.393 614.203 278.181 613.446 277.117 613.315C273.907 612.916 271.108 612.949 268.012 612.638C271.724 611.264 279.347 612.761 283.027 614.432ZM378.255 620.387C377.217 620.276 370.403 618.228 362.317 619.667C356.37 618.898 350.459 618.1 344.589 617.272C354.538 618.598 368.693 618.219 373.578 618.387C375.429 618.455 375.767 619.037 377.249 619.088C385.793 619.375 394.193 618.227 395.04 620.137C386.899 619.445 379.574 620.525 378.255 620.387ZM326.386 617.507C325.038 617.032 323.645 616.553 322.279 616.073C327.406 616.384 332.15 616.65 337.124 616.907C335.768 617.238 334.414 617.568 333.06 617.897C330.83 617.771 328.605 617.641 326.386 617.507ZM708.375 598.03C705.337 598.574 702.226 599.119 699.234 599.632C699.431 599.892 702.916 599.283 704.244 599.245C704.239 599.246 704.233 599.247 704.227 599.248C705.701 599.209 705.153 599.686 707.789 599.379C707.985 598.93 708.18 598.48 708.375 598.03ZM341.924 181.798C336.56 181.452 291.308 164.115 294.917 165.965C296.547 167.462 312.09 173.543 316.741 175.074C322.889 177.484 339.719 183.654 341.924 181.798ZM263.87 146.894C263.228 147.132 269.816 151.971 277.133 156.377C283.496 160.264 290.23 163.583 291.523 164.113C291.02 163.701 290.296 162.971 289.58 162.526C287.861 161.466 282.761 158.802 277.532 155.693C271.981 152.418 266.638 148.937 263.87 146.894ZM874.917 555.828C872.458 556.229 869.989 556.619 867.509 556.997C868.358 557.412 869.207 557.826 870.058 558.238C871.688 557.439 873.308 556.636 874.917 555.828ZM1039.56 407.398C1042.92 393.043 1043.89 379.096 1042.74 364.017C1040.68 338.363 1036.47 314.643 1028.22 290.646C1029.61 293.769 1030.95 296.977 1032.24 300.271C1038.27 320.655 1041.71 341.836 1043.47 363.959C1044.54 377.799 1043.89 390.142 1041.58 402.873C1040.93 404.403 1040.26 405.911 1039.56 407.398ZM389.387 623.763C399.611 623.982 408.245 623.589 419.444 624.442C408.765 625.173 403.453 623.902 393.111 624.87C393.106 624.87 393.1 624.87 393.094 624.87C391.857 624.502 390.621 624.133 389.387 623.763ZM617.993 613.872C614.938 614.702 611.875 615.523 608.806 616.335C612.559 615.935 616.307 615.522 620.047 615.096C619.362 614.688 618.677 614.28 617.993 613.872ZM859.31 158.011C848.647 157.167 821.447 153.016 812.635 154.194C812.074 154.262 817.206 154.956 808.839 155.729C815.134 155.688 819.605 155.72 820.117 154.928C821.978 155.301 823.835 155.685 825.685 156.08C828.797 156.072 831.907 156.096 835.013 156.156C834.61 156.94 834.85 156.894 839.67 156.802C841.822 157.22 843.965 157.656 846.099 158.11C847.053 157.875 848.008 157.644 848.965 157.416C850.775 158.123 852.574 158.843 854.361 159.577C861.687 160.108 857.412 158.553 859.31 158.011ZM895.905 166.043C894.523 164.479 845.579 156.011 867.482 161.616C873.213 162.592 878.936 163.726 884.63 165.035C880.561 161.265 895.441 167.431 896.616 167.949C902.577 169.907 910.3 171.828 914.511 173.444C918.167 174.835 920.138 176.146 922.668 177.177C931.335 180.565 944.323 187.438 946.588 187.569C940.299 183.954 933.661 180.62 926.746 177.636C919.401 174.54 913.215 170.789 898.362 167.83C894.823 166.642 896.323 166.213 895.905 166.043ZM599.481 617.189C599.751 616.069 580.904 618.124 580.81 618.547C580.796 618.81 586.956 618.246 587.843 618.258C587.848 618.258 587.854 618.257 587.86 618.256C588.23 618.265 586.41 618.863 589.314 618.71C592.708 618.213 596.097 617.706 599.481 617.189ZM416.039 191.413C413.413 191.529 355.171 183.209 353.586 182.037C353.109 182.011 353.687 182.427 353.47 182.539C367.046 184.875 386.143 189.027 399.149 190.475C402.749 190.891 401.724 190.328 401.928 190.344C401.936 190.344 401.945 190.345 401.954 190.346C404.037 190.59 413.158 192.514 416.039 191.413ZM793.886 154.401C796.375 154.569 798.862 154.755 801.345 154.959C801.979 154.622 802.615 154.286 803.253 153.952C803.247 153.952 803.241 153.952 803.235 153.951C800.117 154.073 797 154.223 793.886 154.401ZM707.741 159.361C708.379 159.523 709.017 159.687 709.656 159.851C715.889 159.099 722.056 158.419 728.354 157.799C727.735 158.001 727.117 158.203 726.5 158.406C736.04 157.774 739.765 156.614 744.843 156.31C744.837 156.31 744.832 156.311 744.826 156.311C745.371 156.281 746.067 156.73 748.09 156.589C752.759 156.228 765.944 155.634 767.549 155.079C770.883 153.737 744.203 155.884 739.237 156.426C736.993 156.604 734.264 156.42 732.906 156.543C731.436 156.678 729.414 157.476 725.762 157.848C724.651 157.943 712.896 158.572 707.741 159.361ZM598.492 178.7C600.475 178.885 604.458 177.595 606.02 177.389C606.365 177.345 603.713 178.315 607.032 177.824C607.869 177.347 608.714 176.869 609.565 176.389C606.129 177.115 602.108 177.951 598.492 178.7ZM567.745 620.59C568.303 620.671 578.478 619.771 578.958 619.647C584.964 618.135 563.908 620.03 567.745 620.59ZM310.409 623.507C314.943 625.468 259.517 619.505 254.181 618.726C254.523 617.86 267.618 620.112 260.834 618.167C267.299 619.552 285.934 620.857 289.985 621.357C292.552 621.687 293.145 622.521 293.533 622.578C295.041 622.801 308.764 622.898 310.409 623.507ZM208.627 612.418C213.764 613.333 218.967 614.221 224.231 615.081C217.98 614.37 211.809 613.621 205.726 612.833C206.692 612.696 207.659 612.557 208.627 612.418ZM202.107 611.878C202.432 612.852 184.131 609.299 179.58 608.671C185.005 608.088 193.904 610.986 202.107 611.878ZM500.293 626.973C508.607 627.205 512.043 624.349 502.025 625.963C501.72 626.015 499.946 626.956 500.293 626.973ZM857.321 153.884C855.951 153.558 838.46 150.64 837.364 151.073C834.008 152.138 845.646 152.677 849.421 153.72C855.516 155.386 846.3 154.73 861.482 156.457C860.821 156.632 860.161 156.809 859.502 156.987C868.301 158.478 865.733 156.167 867.361 156.185C867.864 156.186 873.332 157.366 874.339 157.455C887.019 158.383 858.714 153.808 857.321 153.884ZM704.132 605.923C720.657 603.767 713.444 603.912 730.062 600.755C730.545 600.099 706.238 605.079 704.132 605.923ZM998.451 226.206C987.107 213.091 976.997 203.005 963.274 194.579C963.267 195.559 973.769 202.879 982.883 211.184C991.936 219.202 999.726 228.116 998.451 226.206ZM239.325 117.614C250.958 130.006 264.951 140.915 280.608 150.427C325.09 177.453 381.429 186.976 433.142 189.157C440.802 189.464 441.546 190.096 444.298 190.098C446.1 190.091 445.794 189.562 448.232 189.6C483.673 190.036 518.912 187.467 552.662 181.72L553.088 181.686C602.348 177.199 651.203 163.354 700.714 157.576C706.016 156.782 731.741 154.944 737.042 152.862C741.086 151.167 722.688 153.966 719.628 154.363C717.324 154.619 717.157 154.03 715.626 154.208C714.004 154.4 715.392 154.65 713.513 154.882C705.483 155.88 696.697 156.911 689.525 157.998C643.321 164.321 597.35 177.116 553.112 180.62L552.467 180.672C529.058 184.638 504.734 186.826 480.486 187.791C471.838 188.097 473.704 187.517 473.245 187.537C473.239 187.539 473.233 187.54 473.228 187.541C427.557 188.784 374.503 185.926 328.502 170.51C312.062 164.999 296.13 158.014 281.338 149.177C267.039 140.64 253.511 130.748 241.717 119.407C240.92 118.82 240.112 118.213 239.325 117.614ZM892.892 162.856C889.184 160.051 887.839 161.304 872.829 157.5C871.536 157.567 870.245 157.642 868.954 157.725C876.951 159.108 885.038 160.824 892.917 162.862C892.909 162.86 892.9 162.858 892.892 162.856ZM791.822 150.744C789.162 148.071 754.643 150.984 739.1 152.183C736.355 153.617 758.87 151.243 764.199 151.2C766.881 151.1 781.144 151.723 791.97 150.995C791.921 150.912 791.871 150.828 791.822 150.744ZM368.618 630.053C371.185 630.064 373.63 630.067 376.128 630.065C369.992 629.618 363.523 629.127 357.26 628.607C367.367 629.18 377.325 629.659 387.28 630.054C385.409 630.525 383.54 630.994 381.671 631.46C377.303 631.007 373.05 630.541 368.618 630.053ZM401.027 630.546C383.47 630.449 401.802 629.4 406.199 630.043C408.827 630.438 402.821 630.554 401.027 630.546ZM446.672 631.492C438.476 632.507 421.996 632.573 427.853 630.771C436.666 631.596 442.35 630.877 455.213 631.166C453.341 631.541 451.468 631.913 449.596 632.281C449.587 632.281 449.578 632.281 449.57 632.282C448.603 632.019 447.637 631.756 446.672 631.492ZM392.987 631.502C381.507 630.279 414.813 631.156 404.329 631.678C403.831 631.71 393.433 631.557 392.987 631.502ZM299.406 156.408C297.922 156.385 305.77 159.981 308.427 161.084C319.84 166.12 335.196 170.88 347.806 174.123C346.903 173.693 346.003 173.259 345.107 172.822C329.397 168.646 314.022 163.286 299.406 156.408ZM387.852 181.93C396.742 183.18 405.704 184.148 414.643 184.864C415.486 184.935 419.452 184.725 416.54 184.384C406.958 183.862 397.386 183.059 387.852 181.93ZM948.084 181.037C942.016 177.18 960.77 186.061 958.907 187.281C955.362 185.084 951.753 183.004 948.084 181.037ZM999.97 222.387C996.881 219.025 993.699 215.819 990.433 212.762C990.576 212.612 990.72 212.462 990.863 212.312C993.997 215.529 997.035 218.886 999.97 222.387ZM269.295 138.808C271.789 141.107 276.985 144.557 282.241 147.631C284.236 148.803 286.181 149.884 287.851 150.795C286.577 149.869 284.626 148.672 282.424 147.319C277.897 144.556 272.788 141.407 269.295 138.808ZM847.006 149.979C847.527 150.307 819.566 147.922 829.312 147.838C835.199 148.423 841.128 149.134 847.006 149.979ZM790.099 146.458C796.117 146.295 800.779 146.528 799.534 147.274C796.348 147.215 793.162 147.185 789.975 147.183C790.016 146.941 790.058 146.7 790.099 146.458ZM477.889 632.317C487.914 631.961 497.96 631.521 508.012 630.995C507.649 631.22 507.285 631.444 506.922 631.668C497.228 632.171 487.541 632.593 477.872 632.937C477.877 632.73 477.883 632.524 477.889 632.317ZM265.876 134.191C260.283 130.407 254.982 126.455 249.942 122.284C254.806 126.667 259.955 130.849 265.414 134.874C265.573 134.648 265.732 134.423 265.892 134.197C265.887 134.195 265.881 134.193 265.876 134.191ZM340.069 633.645C370.723 636.005 331.469 635.31 323.579 633.319C323.57 633.319 323.561 633.32 323.552 633.321C322.839 633.152 324.399 632.636 323.215 632.319C326.394 632.784 329.382 633.229 332.483 633.671C335.326 633.482 338.175 633.286 341.031 633.083C341.959 633.263 342.888 633.442 343.819 633.62C342.567 633.63 341.318 633.638 340.069 633.645ZM216.221 623.019C188.893 619.009 216.847 621.597 230.745 624.473C230.591 624.747 218.739 623.39 216.221 623.019ZM289.143 630.541C293.487 630.757 297.856 630.955 302.248 631.137C302.795 631.351 303.343 631.566 303.891 631.779C300.509 631.71 297.14 631.63 293.785 631.541C292.234 631.21 290.686 630.877 289.143 630.541ZM433.542 638.629C440.619 638.774 449.595 636.822 426.942 637.408C426.953 637.616 426.965 637.823 426.977 638.031C427.878 637.998 430.526 637.799 430.671 637.814C431.087 637.864 430.598 638.56 433.542 638.629ZM164.188 620.221C163.324 620.133 162.843 622.305 154.79 618.42C152.211 618.05 149.651 617.673 147.112 617.288C146.561 616.681 146.012 616.074 145.466 615.467C155.088 617.846 156.416 617.062 157.118 617.189C160.413 617.736 157.962 617.772 159.963 618.165C165.055 619.181 177.092 620.97 171.415 621.416C169.366 621.575 164.968 620.289 164.188 620.221ZM182.637 624.74C181.488 624.364 185.392 624.362 184.531 624.036C183.742 623.763 172.27 621.127 175.593 620.599C177.477 620.974 179.371 621.345 181.275 621.712C181.873 622.113 182.473 622.514 183.075 622.915C184.979 622.955 186.891 622.99 188.81 623.022C191.848 624.253 198.504 626.249 190.354 625.573C193.28 625.976 196.425 626.398 199.16 626.747C200.672 626.62 202.188 626.491 203.708 626.36C202.861 626.776 202.014 627.19 201.167 627.604C195.381 626.764 188.716 625.736 182.637 624.74ZM93.8021 604.751C94.2137 604.585 94.6248 604.418 95.0364 604.25C84.4037 601.768 67.8666 596.226 77.6781 597.745C92.5027 602.533 105.532 606.019 120.475 609.57C121.404 610.013 122.338 610.454 123.277 610.894C112.472 607.41 114.998 611.556 105.952 608.148C104.464 607.562 109.189 607.658 99.3841 605.713C99.6474 606.075 99.9125 606.438 100.178 606.801C98.0285 606.125 95.9027 605.442 93.8021 604.751ZM6.15071 563.477C22.8962 576.651 3.16751 563.433 1.33456 560.032C1.33923 560.036 1.34413 560.041 1.3488 560.045C-4.58304 551.439 10.8685 567.064 12.6082 567.657C13.3664 568.19 14.9562 568.823 17.1339 570.14C19.0943 571.307 21.6519 573.196 25.1207 576.594C21.8949 574.703 18.8892 572.815 15.8741 570.764C12.4263 568.42 9.18187 565.997 6.15071 563.477ZM62.5969 594.333C61.0595 593.806 62.0396 593.733 61.3655 593.482C61.3593 593.48 61.3537 593.478 61.3476 593.475C51.0027 589.929 29.4376 579.868 27.4045 576.83C34.7501 581.59 65.704 594.128 67.1628 595.256C65.6285 594.954 64.1065 594.646 62.5969 594.333ZM130.105 613.179C135.588 615.334 122.994 612.562 119.115 611.152C118.446 610.896 124.477 610.96 130.105 613.179ZM590.019 636.539C603.143 634.766 585.788 635.891 591.701 634.508C589.193 634.815 586.684 635.116 584.172 635.412C586.12 635.791 588.069 636.167 590.019 636.539ZM1061.38 336.024C1061 332.916 1060.73 334.461 1060.69 334.193C1060.39 332.223 1060.44 330.075 1060.26 329.256C1056.66 314.228 1058.11 324.407 1058.05 324.553C1057.62 324.959 1056.32 321.124 1056.78 326.696C1057.56 330.013 1058.29 333.34 1058.93 336.413C1058.9 338.028 1058.85 339.649 1058.8 341.278C1060.23 347.598 1059.29 339.198 1059.91 338.159C1060.16 337.746 1061.39 343.693 1061.38 336.024ZM613.788 635.806C615.847 634.711 620.979 633.036 615.722 632.741C615.716 632.741 615.71 632.742 615.704 632.742C614.735 632.69 610.824 633.024 609.62 632.925C601.307 634.953 604.615 635.829 613.788 635.806ZM1064.99 397.929C1063.99 403.73 1062.68 409.412 1061.08 414.964C1060.6 414.742 1060.11 414.52 1059.63 414.3C1060.51 411.364 1061.3 408.39 1062.01 405.378C1061.98 404.269 1061.93 403.162 1061.87 402.055C1060.66 405.737 1059.32 409.331 1057.86 412.837C1056.99 417.279 1055.93 421.669 1054.68 426.011C1055.61 424.132 1056.5 422.234 1057.35 420.307C1054.31 430.981 1053.83 428.314 1050 436.577C1049.23 439.639 1048.36 442.691 1047.39 445.731C1044.95 449.588 1042.28 453.445 1039.63 456.932C1035.95 463.391 1035.81 464.131 1039 460.172C1037.56 463.677 1034.46 466.545 1032.03 470.354C1031.83 470.669 1032.72 470.446 1032.54 470.719C1018.51 489.855 1017.79 486.736 1015.35 489.617C1013.64 491.486 1007.02 499.54 1007.1 499.899C1007.23 500.28 1024.48 486.997 999.617 509.997C1013.81 499.72 1026.1 483.368 1015.98 491.651C1020.11 488.167 1035.08 468.382 1035.72 466.872C1037.08 465.014 1037.25 466.098 1038.84 463.687C1039.75 462.14 1040.95 457.964 1048.51 446.283C1049.04 444.582 1049.55 442.878 1050.02 441.171C1050.9 439.771 1051.77 438.355 1052.61 436.923C1052.05 440.364 1051.37 443.81 1050.57 447.257C1055.8 434.701 1060.82 424.4 1061.56 415.981C1063.48 409.068 1064.17 405.587 1064.29 408.793C1064.73 406.659 1065.13 404.511 1065.48 402.349C1065.34 400.871 1065.17 399.398 1064.99 397.929ZM652.346 629.876C658.659 629.839 660.711 627.779 659.712 627.822C654.141 628.055 649.061 629.891 652.346 629.876ZM1062.03 347.809C1062.3 352.607 1062.48 357.487 1062.57 362.451C1062.63 365.117 1062.62 367.76 1062.56 370.381C1063.11 370.363 1063.66 370.345 1064.21 370.327C1064.09 367.687 1063.91 365.032 1063.66 362.365C1063.2 357.416 1062.66 352.565 1062.03 347.809ZM588.205 637.952C587.53 637.6 586.855 637.247 586.18 636.894C578.725 639.09 570.984 637.555 567.263 638.298C566.455 638.46 568.161 639.056 569.73 639.086C570.71 639.124 586.878 638.235 588.205 637.952ZM271.313 638.142C274.207 638.133 277.114 638.116 280.026 638.092C279.829 638.541 279.626 638.99 279.427 639.438C277.99 639.4 276.557 639.359 275.126 639.316C273.852 638.926 272.581 638.535 271.313 638.142ZM303.543 640.051C308.599 640.45 313.686 640.827 318.803 641.182C299.319 640.341 315.251 641.606 303.446 641.398C303.478 640.949 303.51 640.5 303.543 640.051ZM354.713 643.847C354.078 644.098 353.442 644.35 352.806 644.601C347.728 644.39 342.672 644.158 337.641 643.904C340.774 645.026 343.923 646.139 347.086 647.245C348.944 647.33 350.805 647.413 352.669 647.493C353.351 646.278 354.033 645.062 354.713 643.847ZM1002.73 203.411C1000.48 200.911 991.299 193.542 991.425 194.158C994.834 197.696 998.037 201.293 1001.11 205.009C1001.52 204.641 1001.93 204.272 1002.35 203.904C1002.63 204.588 1002.9 205.273 1003.17 205.96C1005.22 207.816 1007.24 209.729 1009.23 211.699C1009.79 213.075 1010.34 214.467 1010.86 215.842C1012.15 216.538 1013.45 217.255 1014.74 217.993C1007.06 207.078 1006.28 208.181 1004.47 206.118C1003.51 205.086 1003.14 204.209 1002.91 203.729C1002.85 203.623 1002.79 203.517 1002.73 203.411ZM1066.08 352.452C1064.56 337.166 1061.72 329.215 1060.65 317.813C1060.09 323.024 1064.36 343.069 1065.71 362.203C1066.57 372.906 1066.06 382.569 1064.86 388.307C1065.14 390.086 1065.4 391.871 1065.62 393.661C1066.23 384.483 1067.1 377.994 1067.17 373.356C1067.2 369.672 1066.75 370.066 1066.75 369.785C1066.75 369.772 1066.75 369.759 1066.75 369.745C1066.7 366.59 1066.64 364.207 1066.57 362.135C1066.48 358.756 1066.44 356.302 1066.08 352.452ZM577.634 640.931C581.586 641.256 588.389 640.57 588.375 639.607C584.565 639.68 580.753 639.74 576.939 639.787C577.739 639.965 576.96 640.876 577.634 640.931ZM360.535 646.749C363.587 647.179 370.873 647.142 367.763 646.213C367.201 646.051 359.956 646.377 364.245 645.034C357.212 644.806 358.799 646.504 360.535 646.749ZM922.374 558.551C919.99 559.75 917.583 560.935 915.154 562.106C914.749 562.723 914.343 563.34 913.934 563.957C916.787 562.172 919.601 560.37 922.374 558.551ZM544.813 644.085C541.292 642.423 535.599 644.632 529.128 643.443C526.771 643.566 524.415 643.684 522.058 643.797C522.052 643.797 522.047 643.797 522.041 643.798C522.004 644.317 521.967 644.835 521.931 645.354C529.559 644.981 537.188 644.558 544.813 644.085ZM1048.96 448.853C1047.94 450.328 1046.9 451.784 1045.84 453.222C1044.54 456.165 1043.26 458.888 1041.86 461.682C1042.91 460.366 1043.95 459.034 1044.96 457.687C1046.34 454.851 1047.72 451.825 1048.96 448.853ZM503.349 646.498C511.626 646.373 514.654 644.585 504.092 645.053C499.642 645.243 494.681 646.607 503.349 646.498ZM850.66 136.118C853.566 136.611 856.458 137.135 859.351 137.695C860.4 137.498 861.452 137.304 862.505 137.116C858.512 136.713 854.61 136.389 850.66 136.118ZM321.465 644.667C321.822 644.342 322.179 644.018 322.536 643.693C325.136 643.917 327.536 644.124 330.045 644.332C329.4 644.641 328.754 644.948 328.107 645.256C325.921 645.066 323.733 644.871 321.465 644.667ZM870.3 139.236C872.622 139.711 874.936 140.21 877.244 140.733C878.838 140.877 880.415 141.028 882.032 141.2C879.866 140.569 877.75 139.972 875.595 139.389C873.829 139.324 872.064 139.273 870.3 139.236ZM425.085 647.973C428.245 648.399 440.9 647.054 429.501 646.761C422.25 646.557 424.611 647.908 425.085 647.973ZM407.926 648.294C420.111 649.177 410.973 645.143 396.481 647.518C411.057 647.377 407.218 648.23 407.926 648.294ZM301.26 646.023C300.956 645.999 300.745 645.406 298.32 645.204C289.551 644.481 278.354 643.298 271.848 642.654C256.653 641.4 210.429 636.773 205.443 634.155C204.39 633.649 207.078 632.975 206.637 632.857C205.33 632.525 197.738 631.914 199.246 631.355C206.596 632.464 214.071 633.516 221.662 634.512C219.728 634.81 217.798 635.103 215.873 635.393C234.816 637.591 228.615 636.772 234.246 636.281C237.533 637.139 240.445 637.941 243.563 638.756C250.442 639.068 257.395 639.335 264.416 639.557C262.8 639.745 261.188 639.931 259.578 640.114C270.008 641.792 267.148 641.081 273.01 640.791C272.991 641.135 272.971 641.479 272.952 641.823C283.396 641.926 284.957 643.063 287.203 643.267C291.703 643.641 297.612 640.091 314.745 645.281C322.206 643.799 321.899 647.747 326.241 645.98C338.388 648.858 314.96 646.785 303.777 645.869C303.771 645.868 303.765 645.868 303.759 645.868C302.921 645.801 304.224 646.267 301.26 646.023ZM364.834 647.389C357.312 648.953 386.792 650.016 377.118 647.143C375.679 647.019 374.242 646.894 372.806 646.767C370.214 646.983 367.483 647.188 364.817 647.389C364.823 647.389 364.829 647.389 364.834 647.389ZM641.735 636.485C668.698 632.196 653.187 633.22 644.154 635.41C642.349 635.843 641.378 636.241 641.735 636.485ZM1064.59 330.902C1064.3 330.504 1064.02 330.107 1063.74 329.713C1065.65 338.937 1066.75 357.568 1068.11 357.291C1067.22 348.18 1066.05 339.428 1064.59 330.902ZM1066.13 410.795C1066.77 408.618 1068.52 399.408 1067.77 400.437C1066.79 404.393 1065.66 408.276 1064.4 412.081C1064.23 413.946 1064.01 415.809 1063.77 417.669C1064.53 415.188 1065.98 411.398 1066.13 410.795Z" fill="#DDD1B5"/>
</svg>
